<svg version="1.1" xmlns="http://www.w3.org/2000/svg" width="1024" height="1024">
<path d="M0 0 C337.92 0 675.84 0 1024 0 C1024 337.92 1024 675.84 1024 1024 C686.08 1024 348.16 1024 0 1024 C0 686.08 0 348.16 0 0 Z " fill="#FEFEFE" transform="translate(0,0)"/>
<path d="M0 0 C4.221 3.659 7.127 7.455 8.488 12.898 C8.53 13.723 8.571 14.548 8.613 15.398 C9.727 15.068 10.841 14.738 11.988 14.398 C19.664 12.53 26.559 12.493 33.695 16.156 C36.909 18.238 38.149 19.832 39.613 23.398 C40.874 31.786 39.481 38.467 34.613 45.398 C29.058 52.168 22.336 57.293 14.613 61.398 C13.953 61.398 13.293 61.398 12.613 61.398 C13.55 64.065 14.487 66.732 15.426 69.398 C15.687 70.142 15.948 70.886 16.217 71.652 C17.516 75.342 18.842 79.017 20.238 82.672 C25.086 95.811 26.323 113.465 21.488 126.773 C16.693 137.089 9.243 145.881 -1.387 150.398 C-1.387 150.728 -1.387 151.058 -1.387 151.398 C-0.294 151.646 0.8 151.893 1.926 152.148 C5.678 153.42 6.84 153.956 8.613 157.398 C8.613 158.388 8.613 159.378 8.613 160.398 C9.273 160.068 9.933 159.738 10.613 159.398 C17.618 158.961 25.504 159.31 31.176 163.836 C33.613 166.398 33.613 166.398 34.613 169.398 C36.291 170.338 37.97 171.274 39.662 172.187 C45.939 176.085 50.541 182.575 54.926 188.398 C55.48 189.129 56.035 189.859 56.607 190.612 C61.917 197.674 66.815 204.982 71.613 212.398 C72.273 213.388 72.933 214.378 73.613 215.398 C74.678 215.182 75.743 214.965 76.84 214.742 C90.085 212.156 102.321 211.36 115.613 214.398 C115.696 213.429 115.778 212.46 115.863 211.461 C116.513 206.727 118.536 202.659 120.613 198.398 C127.291 199.005 133.315 201.175 139.613 203.398 C138.886 201.962 138.886 201.962 138.145 200.496 C136.342 196.923 134.558 193.342 132.782 189.756 C132.001 188.182 131.219 186.609 130.433 185.037 C129.293 182.747 128.17 180.449 127.051 178.148 C126.692 177.434 126.334 176.72 125.965 175.985 C123.538 170.936 123.538 170.936 123.914 168.259 C124.613 166.398 124.613 166.398 126.426 165.086 C129.11 164.242 130.041 164.253 132.613 165.398 C134.273 168 134.273 168 135.891 171.453 C136.184 172.069 136.477 172.685 136.779 173.32 C137.717 175.299 138.634 177.286 139.551 179.273 C140.163 180.574 140.777 181.873 141.393 183.172 C142.591 185.709 143.778 188.252 144.953 190.8 C146.015 193.102 147.086 195.4 148.168 197.692 C148.626 198.67 149.083 199.649 149.555 200.656 C149.955 201.506 150.355 202.356 150.768 203.231 C151.613 205.398 151.613 205.398 151.613 208.398 C152.661 208.706 152.661 208.706 153.73 209.02 C154.641 209.289 155.551 209.558 156.488 209.836 C157.393 210.103 158.298 210.37 159.23 210.645 C161.613 211.398 161.613 211.398 163.613 212.398 C163.725 211.7 163.837 211.002 163.952 210.283 C164.693 207.052 165.849 204.281 167.188 201.25 C167.941 199.494 167.941 199.494 168.709 197.703 C169.503 195.86 170.302 194.02 171.119 192.188 C171.911 190.404 172.675 188.608 173.438 186.812 C173.902 185.75 174.367 184.687 174.846 183.592 C175.804 179.604 175.006 177.199 173.613 173.398 C172.953 173.398 172.293 173.398 171.613 173.398 C171.455 173.932 171.296 174.466 171.133 175.016 C169.213 181.147 166.611 186.723 163.613 192.398 C161.963 192.068 160.313 191.738 158.613 191.398 C159.209 184.96 161.383 180.045 164.174 174.271 C166.752 168.714 167.429 164.968 165.52 158.953 C165.055 157.739 164.591 156.525 164.113 155.273 C161.5 147.931 159.939 140.813 162.312 133.137 C163.238 131.211 163.238 131.211 165.613 128.398 C168.863 127.461 168.863 127.461 171.613 127.398 C171.943 128.718 172.273 130.038 172.613 131.398 C173.82 131.368 173.82 131.368 175.051 131.336 C177.613 131.398 177.613 131.398 178.613 132.398 C178.754 135.069 178.656 137.723 178.613 140.398 C179.273 140.398 179.933 140.398 180.613 140.398 C180.985 139.439 180.985 139.439 181.363 138.461 C183.021 134.399 184.817 130.401 186.613 126.398 C188.593 126.728 190.573 127.058 192.613 127.398 C192.017 132.267 191.044 136.726 189.613 141.398 C192.376 141.996 194.774 142.398 197.613 142.398 C198.273 141.738 198.933 141.078 199.613 140.398 C202.548 140.765 203.478 141.263 205.613 143.398 C206.273 142.738 206.933 142.078 207.613 141.398 C212.169 141.954 212.169 141.954 213.613 143.398 C213.074 154.003 206.643 160.011 199.184 167.007 C195.71 170.085 191.937 172.756 188.145 175.426 C183.99 178.663 182.151 182.118 180.238 186.977 C179.81 188.056 179.382 189.134 178.941 190.246 C178.503 191.369 178.065 192.492 177.613 193.648 C177.175 194.756 176.737 195.863 176.285 197.004 C174.004 202.781 171.772 208.574 169.613 214.398 C173.566 212.235 176.483 209.751 179.633 206.539 C180.095 206.072 180.557 205.604 181.034 205.122 C182.503 203.636 183.965 202.143 185.426 200.648 C196.861 188.993 196.861 188.993 203.012 183.772 C204.984 182.08 206.815 180.272 208.613 178.398 C211.338 179.365 212.397 179.977 213.738 182.586 C213.536 187.129 210.733 189.309 207.613 192.398 C206.413 193.455 205.203 194.5 203.984 195.535 C199.135 199.747 194.629 204.272 190.113 208.836 C189.291 209.663 188.468 210.49 187.621 211.342 C185.616 213.358 183.614 215.377 181.613 217.398 C182.15 217.667 182.687 217.935 183.24 218.212 C189.427 221.305 189.427 221.305 195.613 224.398 C194.72 234.005 191.24 243.112 187.562 251.965 C185.978 256.027 184.791 260.204 183.613 264.398 C184.231 264.447 184.848 264.496 185.484 264.547 C201.144 265.929 201.144 265.929 204.613 269.398 C204.854 272.296 204.854 272.296 204.84 276.051 C204.841 276.734 204.841 277.417 204.841 278.121 C204.84 280.383 204.824 282.644 204.809 284.906 C204.805 286.473 204.802 288.039 204.8 289.606 C204.792 293.732 204.773 297.859 204.751 301.985 C204.73 306.194 204.721 310.404 204.711 314.613 C204.689 322.875 204.655 331.137 204.613 339.398 C199.847 340.799 195.313 341.826 190.379 342.434 C189.371 342.559 189.371 342.559 188.343 342.686 C186.184 342.951 184.024 343.207 181.863 343.461 C181.129 343.549 180.394 343.638 179.637 343.729 C169.432 344.954 159.279 345.9 149 346.223 C145.863 346.265 145.863 346.265 143.903 346.867 C140.505 347.656 137.067 347.833 133.598 348.082 C132.802 348.142 132.005 348.202 131.185 348.263 C128.578 348.458 125.971 348.647 123.363 348.836 C121.561 348.968 119.759 349.101 117.957 349.234 C106.513 350.07 95.065 350.858 83.613 351.586 C82.311 351.67 81.009 351.753 79.667 351.84 C78.453 351.914 77.239 351.989 75.988 352.066 C74.422 352.163 74.422 352.163 72.824 352.262 C69.081 352.421 65.359 352.42 61.613 352.398 C61.734 353.356 61.856 354.314 61.98 355.301 C62.433 358.886 62.878 362.472 63.322 366.058 C63.515 367.604 63.709 369.15 63.904 370.696 C64.187 372.929 64.463 375.164 64.738 377.398 C64.826 378.079 64.913 378.76 65.003 379.461 C66.538 392.11 66.538 392.11 63.863 395.836 C61.66 397.366 60.186 397.842 57.613 398.398 C57.703 399.013 57.793 399.627 57.885 400.26 C60.688 419.846 62.695 439.505 64.599 459.194 C64.799 461.256 65 463.318 65.201 465.381 C67.813 492.209 67.813 492.209 68.396 505.348 C68.577 507.891 68.992 509.953 69.613 512.398 C69.805 514.61 69.955 516.826 70.078 519.043 C70.157 520.374 70.236 521.706 70.314 523.037 C70.432 525.105 70.549 527.174 70.663 529.242 C71.139 537.757 71.919 546.121 73.112 554.573 C74.019 561.493 74.554 568.443 75.113 575.398 C75.242 576.961 75.371 578.524 75.5 580.086 C76.468 591.97 77.274 603.861 77.967 615.764 C78.038 616.962 78.11 618.16 78.184 619.395 C78.243 620.438 78.303 621.481 78.364 622.556 C78.599 625.239 79.081 627.762 79.613 630.398 C79.867 633.709 79.89 637.017 79.926 640.336 C79.955 641.217 79.984 642.098 80.014 643.006 C80.068 648.627 79.535 652.044 75.613 656.398 C73.422 657.824 73.422 657.824 71.051 658.711 C70.286 659.016 69.522 659.322 68.734 659.637 C64.082 660.772 59.381 661.055 54.613 661.398 C55.374 674.509 55.374 674.509 60.777 685.949 C63.321 687.25 65.746 688.154 68.515 688.85 C70.998 689.499 73.405 690.307 75.836 691.129 C82.723 693.431 89.657 695.564 96.641 697.555 C105.994 700.261 112.847 703.36 118.613 711.398 C120.29 716.428 120.452 721.426 118.363 726.336 C116.539 728.486 115.133 729.238 112.613 730.398 C113.184 730.419 113.755 730.44 114.343 730.461 C167.207 732.379 167.207 732.379 187.613 734.398 C187.613 735.058 187.613 735.718 187.613 736.398 C173.13 738.149 158.702 739.028 144.125 739.512 C142.89 739.554 141.654 739.596 140.382 739.639 C97.672 741.032 54.916 740.661 12.189 740.599 C2.588 740.586 -7.012 740.583 -16.613 740.584 C-28.332 740.585 -40.05 740.578 -51.769 740.569 C-55.054 740.566 -58.339 740.566 -61.624 740.565 C-95.541 740.557 -129.513 740.465 -163.385 738.523 C-165.708 738.391 -168.031 738.269 -170.354 738.148 C-182.483 737.491 -182.483 737.491 -188.387 736.398 C-188.387 735.738 -188.387 735.078 -188.387 734.398 C-170.859 732.492 -153.349 731.815 -135.738 731.334 C-132.863 731.254 -129.988 731.165 -127.114 731.077 C-109.87 730.551 -92.64 730.263 -75.387 730.398 C-76.117 729.043 -76.117 729.043 -76.862 727.661 C-78.208 724.78 -78.77 723.282 -78.785 720.203 C-78.791 719.418 -78.797 718.633 -78.803 717.825 C-78.789 716.983 -78.776 716.141 -78.762 715.273 C-78.755 714.381 -78.749 713.489 -78.742 712.57 C-78.462 697.805 -76.578 682.993 -74.387 668.398 C-75.651 668.456 -76.916 668.514 -78.219 668.574 C-79.879 668.621 -81.539 668.667 -83.199 668.711 C-84.033 668.753 -84.866 668.795 -85.725 668.838 C-88.039 668.884 -90.116 668.856 -92.387 668.398 C-96.727 663.771 -96.511 657.102 -96.52 651.051 C-96.527 649.164 -96.527 649.164 -96.533 647.239 C-96.533 645.856 -96.533 644.473 -96.532 643.09 C-96.535 641.621 -96.538 640.153 -96.542 638.684 C-96.551 634.687 -96.553 630.69 -96.554 626.692 C-96.555 624.164 -96.557 621.636 -96.559 619.107 C-96.569 610.193 -96.573 601.279 -96.572 592.365 C-96.571 585.111 -96.578 577.857 -96.593 570.603 C-96.699 515.162 -96.462 459.723 -92.387 404.398 C-93.97 403.72 -93.97 403.72 -95.586 403.027 C-96.226 402.753 -96.866 402.479 -97.525 402.196 C-99.005 401.562 -100.487 400.931 -101.969 400.301 C-102.705 399.982 -103.441 399.664 -104.199 399.336 C-104.948 399.015 -105.697 398.694 -106.469 398.363 C-108.387 397.398 -108.387 397.398 -110.387 395.398 C-110.59 392.443 -110.669 389.603 -110.637 386.648 C-110.631 385.795 -110.626 384.941 -110.621 384.061 C-110.466 373.608 -108.838 363.555 -106.387 353.398 C-107.244 353.463 -108.101 353.527 -108.984 353.594 C-117.421 353.109 -126.738 346.604 -132.387 340.398 C-142.024 329.106 -145.268 316.389 -144.949 301.773 C-144.932 300.462 -144.915 299.151 -144.897 297.801 C-144.634 286.932 -143.275 276.859 -140.387 266.398 C-140.151 265.512 -139.915 264.626 -139.671 263.712 C-132.611 237.586 -119.964 193.516 -94.879 178.941 C-94.015 178.494 -93.152 178.047 -92.262 177.586 C-88.432 175.549 -84.765 173.401 -81.137 171.023 C-76.686 168.157 -72.154 165.502 -67.512 162.961 C-66.881 162.607 -66.25 162.252 -65.601 161.887 C-62.052 159.979 -59.431 158.96 -55.387 159.398 C-55.345 158.842 -55.304 158.285 -55.262 157.711 C-53.96 154.269 -51.364 152.391 -48.387 150.398 C-47.459 150.048 -46.53 149.697 -45.574 149.336 C-44.852 149.027 -44.13 148.717 -43.387 148.398 C-42.719 146.378 -42.719 146.378 -42.387 144.398 C-42.944 144.009 -43.5 143.62 -44.074 143.219 C-54.161 135.824 -60.463 127.319 -64.387 115.398 C-64.387 114.738 -64.387 114.078 -64.387 113.398 C-65.239 113.377 -65.239 113.377 -66.109 113.355 C-72.017 112.991 -76.189 111.705 -80.387 107.398 C-83.165 103.606 -83.755 101.008 -83.637 96.336 C-83.621 95.314 -83.606 94.291 -83.59 93.238 C-83.387 90.398 -83.387 90.398 -82.672 88.285 C-82.155 86.272 -82.155 86.272 -83.68 84.391 C-84.617 83.343 -84.617 83.343 -85.574 82.273 C-94.27 71.755 -95.297 59.553 -94.387 46.398 C-92.8 39.632 -88.559 33.953 -83.387 29.398 C-81.332 28.293 -81.332 28.293 -79.262 27.398 C-75.123 25.603 -73.801 23.258 -71.637 19.414 C-67.274 12.379 -58.972 8.072 -51.387 5.398 C-47.772 4.975 -44.222 4.838 -40.586 4.734 C-36.64 4.32 -34.376 3.113 -31.328 0.652 C-23.569 -4.359 -7.975 -4.986 0 0 Z " fill="#141316" transform="translate(517.38671875,203.6015625)"/>
<path d="M0 0 C4.221 3.659 7.127 7.455 8.488 12.898 C8.53 13.723 8.571 14.548 8.613 15.398 C9.727 15.068 10.841 14.738 11.988 14.398 C19.664 12.53 26.559 12.493 33.695 16.156 C36.909 18.238 38.149 19.832 39.613 23.398 C40.874 31.786 39.481 38.467 34.613 45.398 C29.058 52.168 22.336 57.293 14.613 61.398 C13.953 61.398 13.293 61.398 12.613 61.398 C13.55 64.065 14.487 66.732 15.426 69.398 C15.687 70.142 15.948 70.886 16.217 71.652 C17.516 75.342 18.842 79.017 20.238 82.672 C25.086 95.811 26.323 113.465 21.488 126.773 C16.693 137.089 9.243 145.881 -1.387 150.398 C-1.387 150.728 -1.387 151.058 -1.387 151.398 C0.253 151.77 0.253 151.77 1.926 152.148 C5.613 153.398 5.613 153.398 7.488 155.086 C8.976 158.144 9.29 161.034 9.613 164.398 C10.242 164.436 10.871 164.473 11.52 164.512 C17.98 165.008 24.815 165.601 29.613 170.398 C30.068 172.479 30.068 172.479 30.359 175.07 C30.473 176.035 30.587 176.999 30.704 177.993 C30.876 179.555 30.876 179.555 31.051 181.148 C31.305 183.328 31.56 185.508 31.816 187.688 C31.946 188.8 32.076 189.913 32.209 191.06 C32.945 197.141 33.818 203.203 34.699 209.265 C34.879 210.541 34.879 210.541 35.062 211.844 C35.169 212.581 35.276 213.319 35.385 214.079 C35.659 216.861 35.649 219.604 35.613 222.398 C31.722 222.835 27.83 223.261 23.937 223.68 C21.979 223.893 20.022 224.112 18.064 224.332 C9.877 225.207 1.846 225.587 -6.387 225.398 C-6.497 224.738 -6.608 224.078 -6.722 223.398 C-7.231 220.377 -7.746 217.356 -8.262 214.336 C-8.436 213.298 -8.61 212.259 -8.789 211.189 C-9.893 204.72 -9.893 204.72 -11.512 198.367 C-12.434 195.238 -12.545 192.643 -12.387 189.398 C-13.707 189.398 -15.027 189.398 -16.387 189.398 C-16.182 190.561 -15.977 191.724 -15.766 192.922 C-13.864 204.091 -12.779 215.078 -12.387 226.398 C-13.076 226.449 -13.765 226.499 -14.475 226.55 C-31.254 227.743 -31.254 227.743 -47.906 230.023 C-51.12 230.509 -54.146 230.549 -57.387 230.398 C-58.569 226.515 -59.539 222.706 -60.262 218.711 C-62.714 206.358 -67.128 193.745 -77.348 185.672 C-80.761 183.54 -84.41 181.997 -88.129 180.477 C-90.387 179.398 -90.387 179.398 -91.387 177.398 C-83.448 172.308 -75.478 167.296 -67.199 162.773 C-66.589 162.431 -65.978 162.089 -65.349 161.736 C-61.884 159.882 -59.324 158.998 -55.387 159.398 C-55.345 158.842 -55.304 158.285 -55.262 157.711 C-53.96 154.269 -51.364 152.391 -48.387 150.398 C-47.459 150.048 -46.53 149.697 -45.574 149.336 C-44.852 149.027 -44.13 148.717 -43.387 148.398 C-42.719 146.378 -42.719 146.378 -42.387 144.398 C-42.944 144.009 -43.5 143.62 -44.074 143.219 C-54.161 135.824 -60.463 127.319 -64.387 115.398 C-64.387 114.738 -64.387 114.078 -64.387 113.398 C-65.239 113.377 -65.239 113.377 -66.109 113.355 C-72.017 112.991 -76.189 111.705 -80.387 107.398 C-83.165 103.606 -83.755 101.008 -83.637 96.336 C-83.621 95.314 -83.606 94.291 -83.59 93.238 C-83.387 90.398 -83.387 90.398 -82.672 88.285 C-82.155 86.272 -82.155 86.272 -83.68 84.391 C-84.617 83.343 -84.617 83.343 -85.574 82.273 C-94.27 71.755 -95.297 59.553 -94.387 46.398 C-92.8 39.632 -88.559 33.953 -83.387 29.398 C-81.332 28.293 -81.332 28.293 -79.262 27.398 C-75.123 25.603 -73.801 23.258 -71.637 19.414 C-67.274 12.379 -58.972 8.072 -51.387 5.398 C-47.772 4.975 -44.222 4.838 -40.586 4.734 C-36.64 4.32 -34.376 3.113 -31.328 0.652 C-23.569 -4.359 -7.975 -4.986 0 0 Z " fill="#141316" transform="translate(517.38671875,203.6015625)"/>
<path d="M0 0 C5.306 0.439 10.586 0.894 15.848 1.719 C36.113 4.815 56.543 4.74 77 5 C76.67 5.99 76.34 6.98 76 8 C75.906 9.407 75.866 10.817 75.861 12.227 C75.856 13.093 75.85 13.959 75.845 14.852 C75.844 15.804 75.843 16.757 75.842 17.738 C75.837 18.749 75.832 19.76 75.827 20.802 C75.811 24.206 75.803 27.61 75.795 31.014 C75.785 33.448 75.775 35.882 75.765 38.316 C75.743 43.564 75.725 48.812 75.709 54.061 C75.686 61.649 75.658 69.237 75.629 76.825 C75.581 89.135 75.538 101.446 75.497 113.756 C75.458 125.716 75.417 137.675 75.372 149.635 C75.37 150.372 75.367 151.109 75.364 151.868 C75.35 155.566 75.337 159.263 75.323 162.96 C75.209 193.64 75.102 224.32 75 255 C70.128 256.261 65.899 257.25 60.834 257.243 C59.686 257.246 58.538 257.249 57.355 257.252 C56.137 257.245 54.919 257.238 53.664 257.23 C52.39 257.23 51.115 257.23 49.802 257.229 C47.114 257.226 44.426 257.219 41.738 257.206 C38.32 257.189 34.903 257.185 31.485 257.186 C28.19 257.185 24.896 257.177 21.602 257.168 C20.388 257.167 19.174 257.166 17.923 257.165 C-0.94 257.06 -0.94 257.06 -3 255 C-3.101 253.012 -3.131 251.02 -3.134 249.029 C-3.138 247.727 -3.142 246.426 -3.147 245.085 C-3.146 243.627 -3.146 242.169 -3.145 240.711 C-3.148 239.185 -3.152 237.658 -3.155 236.131 C-3.164 231.949 -3.167 227.767 -3.167 223.585 C-3.168 220.94 -3.17 218.296 -3.173 215.652 C-3.182 206.329 -3.186 197.005 -3.185 187.682 C-3.185 180.096 -3.192 172.509 -3.206 164.922 C-3.307 109.89 -2.646 54.978 0 0 Z " fill="#65656D" transform="translate(432,609)"/>
<path d="M0 0 C3 3 3 3 5 6 C12.886 6.662 20.819 5.108 28.625 4.066 C35.129 3.236 41.443 2.802 48 3 C48.05 3.588 48.1 4.176 48.152 4.781 C48.389 7.542 48.632 10.302 48.875 13.062 C48.954 13.986 49.032 14.91 49.113 15.861 C49.596 21.306 50.21 26.713 50.953 32.129 C52.121 40.693 53.021 49.275 53.875 57.875 C53.959 58.712 54.042 59.548 54.128 60.41 C55.635 75.552 56.946 90.709 58.188 105.875 C58.272 106.901 58.356 107.926 58.444 108.983 C59.94 127.231 59.94 127.231 60.328 135.582 C60.768 145.048 61.75 154.422 62.794 163.839 C64.171 176.339 65.297 188.856 66.363 201.386 C66.691 205.225 67.03 209.063 67.369 212.9 C69.201 234.016 69.201 234.016 69.395 244.113 C69.433 246.038 69.433 246.038 69.472 248.001 C69 251 69 251 67.255 252.86 C59.902 256.576 50.759 256.502 42.688 257.062 C41.555 257.145 40.423 257.227 39.257 257.312 C24.178 258.381 9.121 259.229 -6 259 C-6 260.98 -6 262.96 -6 265 C-1.05 265 3.9 265 9 265 C9.33 282.49 9.66 299.98 10 318 C7.36 316.02 4.72 314.04 2 312 C-0.255 310.77 -2.549 309.608 -4.879 308.527 C-5.495 308.237 -6.11 307.947 -6.745 307.647 C-8.68 306.735 -10.621 305.835 -12.562 304.938 C-32.701 295.597 -32.701 295.597 -35 291 C-35.084 289.479 -35.107 287.953 -35.098 286.43 C-35.094 285.534 -35.091 284.638 -35.088 283.715 C-35.08 282.778 -35.071 281.841 -35.062 280.875 C-35.058 279.93 -35.053 278.985 -35.049 278.012 C-35.037 275.674 -35.021 273.337 -35 271 C-33.77 270.89 -32.54 270.781 -31.273 270.668 C-29.641 270.508 -28.008 270.348 -26.375 270.188 C-25.567 270.117 -24.759 270.047 -23.926 269.975 C-18.293 269.402 -13.696 268.45 -9.36 264.51 C-7.207 260.536 -7.595 256.611 -7.633 252.162 C-7.629 251.152 -7.626 250.142 -7.623 249.102 C-7.615 245.708 -7.629 242.314 -7.644 238.92 C-7.643 236.49 -7.641 234.061 -7.637 231.632 C-7.633 225.713 -7.642 219.795 -7.658 213.876 C-7.675 206.986 -7.677 200.096 -7.677 193.206 C-7.679 180.915 -7.695 168.624 -7.719 156.333 C-7.742 144.401 -7.756 132.469 -7.76 120.536 C-7.76 119.801 -7.76 119.066 -7.76 118.309 C-7.761 116.828 -7.761 115.348 -7.762 113.867 C-7.762 113.136 -7.762 112.406 -7.762 111.654 C-7.763 110.925 -7.763 110.197 -7.763 109.446 C-7.767 98.082 -7.778 86.718 -7.791 75.354 C-7.795 71.232 -7.798 67.11 -7.801 62.989 C-7.806 55.842 -7.816 48.694 -7.832 41.547 C-7.837 39.17 -7.839 36.793 -7.84 34.416 C-7.842 31.181 -7.85 27.946 -7.86 24.711 C-7.859 23.761 -7.858 22.812 -7.857 21.833 C-7.861 20.969 -7.865 20.106 -7.869 19.215 C-7.87 18.095 -7.87 18.095 -7.872 16.952 C-7.931 14.783 -7.931 14.783 -9 12 C-6.69 11.34 -4.38 10.68 -2 10 C-1.34 6.7 -0.68 3.4 0 0 Z " fill="#65656D" transform="translate(521,602)"/>
<path d="M0 0 C2.197 1.685 4.326 3.422 6.445 5.203 C7.243 5.801 8.041 6.399 8.863 7.016 C11.903 9.591 14.37 12.458 16.82 15.578 C17.534 16.487 17.534 16.487 18.263 17.413 C22.969 23.589 29.445 32.253 29.445 40.203 C28.785 40.203 28.125 40.203 27.445 40.203 C27.445 40.863 27.445 41.523 27.445 42.203 C37.152 44.63 47.44 43.203 57.445 43.203 C57.445 63.003 57.445 82.803 57.445 103.203 C31.976 106.082 6.491 108.338 -19.055 110.391 C-19.879 110.457 -20.702 110.523 -21.551 110.591 C-27.146 111.041 -32.741 111.489 -38.336 111.934 C-39.059 111.991 -39.782 112.049 -40.528 112.108 C-45.203 112.479 -49.879 112.842 -54.555 113.203 C-56.402 113.352 -56.402 113.352 -58.287 113.504 C-65.394 114.055 -72.426 114.334 -79.555 114.203 C-79.578 106.397 -79.596 98.592 -79.606 90.786 C-79.612 87.162 -79.619 83.538 -79.63 79.913 C-79.641 76.419 -79.647 72.924 -79.65 69.429 C-79.652 67.441 -79.66 65.453 -79.668 63.464 C-79.668 62.263 -79.668 61.062 -79.668 59.824 C-79.67 58.761 -79.673 57.697 -79.675 56.601 C-79.555 54.203 -79.555 54.203 -78.555 53.203 C-77.141 53.047 -75.721 52.953 -74.301 52.887 C-73.447 52.845 -72.593 52.803 -71.713 52.76 C-70.815 52.72 -69.917 52.681 -68.992 52.641 C-67.64 52.576 -67.64 52.576 -66.26 52.51 C-64.025 52.403 -61.79 52.301 -59.555 52.203 C-58.895 50.883 -58.235 49.563 -57.555 48.203 C-73.065 48.203 -88.575 48.203 -104.555 48.203 C-104.555 47.543 -104.555 46.883 -104.555 46.203 C-103.895 46.203 -103.235 46.203 -102.555 46.203 C-102.493 45.481 -102.431 44.759 -102.367 44.016 C-101.31 40.356 -99.225 38.873 -96.555 36.203 C-95.828 34.224 -95.153 32.225 -94.555 30.203 C-97.139 30.486 -99.722 30.779 -102.305 31.078 C-103.034 31.157 -103.764 31.235 -104.516 31.316 C-109.821 31.919 -109.821 31.919 -114.555 34.203 C-115.05 35.193 -115.05 35.193 -115.555 36.203 C-114.565 36.038 -113.575 35.873 -112.555 35.703 C-108.527 35.118 -104.62 35.132 -100.555 35.203 C-103.259 39.259 -105.771 39.258 -110.34 40.359 C-111.071 40.638 -111.802 40.916 -112.555 41.203 C-112.885 42.193 -113.215 43.183 -113.555 44.203 C-111.575 44.203 -109.595 44.203 -107.555 44.203 C-109.437 46.528 -110.758 47.278 -113.617 48.328 C-118.229 50.169 -121.367 53.522 -124.957 56.863 C-132.382 63.552 -143.252 72.203 -153.555 72.203 C-154.398 68.497 -155.228 64.788 -156.055 61.078 C-156.293 60.031 -156.532 58.985 -156.777 57.906 C-157.116 56.379 -157.116 56.379 -157.461 54.82 C-157.67 53.888 -157.88 52.956 -158.096 51.996 C-158.59 48.989 -158.746 46.245 -158.555 43.203 C-156.867 41.254 -156.867 41.254 -154.555 39.516 C-149.904 35.722 -146.718 31.584 -143.379 26.621 C-141.618 24.287 -139.976 22.812 -137.555 21.203 C-136.895 21.533 -136.235 21.863 -135.555 22.203 C-136.215 23.193 -136.875 24.183 -137.555 25.203 C-133.342 22.914 -129.444 20.448 -125.555 17.641 C-120.21 13.861 -115.378 10.583 -108.555 11.203 C-108.555 12.193 -108.555 13.183 -108.555 14.203 C-109.802 14.71 -109.802 14.71 -111.074 15.227 C-112.161 15.673 -113.248 16.119 -114.367 16.578 C-115.986 17.239 -115.986 17.239 -117.637 17.914 C-120.662 19.151 -120.662 19.151 -123.555 21.203 C-123.885 22.193 -124.215 23.183 -124.555 24.203 C-123.841 23.77 -123.841 23.77 -123.113 23.328 C-115.973 19.541 -108.483 19.148 -100.555 20.203 C-98.609 21.73 -98.609 21.73 -97.555 23.203 C-98.412 23.241 -99.269 23.278 -100.152 23.316 C-106.564 23.685 -111.92 24.002 -117.555 27.203 C-118.05 28.193 -118.05 28.193 -118.555 29.203 C-118.03 29.059 -117.505 28.914 -116.965 28.766 C-108.52 26.742 -100.176 27.023 -91.555 27.203 C-91.555 25.883 -91.555 24.563 -91.555 23.203 C-93.04 22.708 -93.04 22.708 -94.555 22.203 C-95.254 20.887 -95.922 19.553 -96.555 18.203 C-97.215 17.873 -97.875 17.543 -98.555 17.203 C-98.134 12.143 -97.013 10.061 -93.18 6.766 C-84.468 -0.597 -75.306 -5.98 -64.555 -9.797 C-63.656 -10.118 -62.758 -10.439 -61.832 -10.77 C-41.317 -16.973 -17.383 -12.227 0 0 Z " fill="#FEFEFE" transform="translate(657.5546875,434.796875)"/>
<path d="M0 0 C9.137 0.12 18.083 1.539 27.099 2.918 C28.946 3.193 30.794 3.466 32.642 3.74 C37.245 4.424 41.845 5.124 46.443 5.832 C48.897 6.209 51.35 6.583 53.804 6.957 C58.009 7.599 62.21 8.255 66.411 8.918 C67.626 9.108 68.84 9.297 70.091 9.493 C76.607 10.548 82.96 11.889 89.348 13.55 C92.872 14.442 96.393 15.099 99.974 15.731 C105.772 16.782 111.514 17.976 117.247 19.34 C120.394 20.08 123.545 20.794 126.7 21.496 C128.202 21.832 128.202 21.832 129.735 22.174 C131.752 22.625 133.769 23.072 135.787 23.517 C136.71 23.724 137.632 23.931 138.583 24.145 C139.417 24.33 140.251 24.515 141.11 24.706 C143.036 25.231 143.036 25.231 144.036 26.231 C143.498 31.272 142.457 36.179 141.286 41.106 C141.025 42.212 141.025 42.212 140.759 43.341 C139.352 49.176 137.697 54.914 135.959 60.658 C134.357 65.999 132.977 71.374 131.661 76.793 C127.839 92.448 123.403 108.03 118.036 123.231 C114.274 124.169 111.339 124.197 107.513 123.629 C106.426 123.471 105.339 123.313 104.218 123.15 C102.458 122.881 102.458 122.881 100.661 122.606 C99.427 122.423 98.192 122.241 96.921 122.053 C86.535 120.502 76.174 118.804 65.813 117.096 C55.003 115.335 44.168 113.856 33.302 112.486 C32.115 112.335 30.928 112.183 29.704 112.027 C28.655 111.897 27.606 111.766 26.525 111.632 C24.036 111.231 24.036 111.231 22.036 110.231 C20.49 109.966 18.936 109.745 17.38 109.547 C16.439 109.424 15.498 109.301 14.528 109.174 C13.541 109.048 12.554 108.923 11.536 108.793 C5.04 107.966 -1.375 107.028 -7.784 105.668 C-9.861 105.251 -11.926 104.94 -14.026 104.668 C-16.964 104.231 -16.964 104.231 -17.964 103.231 C-18.823 92.365 -16.987 81.386 -15.452 70.652 C-14.738 64.909 -14.518 59.124 -14.205 53.347 C-13.506 40.619 -12.584 27.923 -11.401 15.231 C-11.337 14.527 -11.273 13.824 -11.207 13.099 C-11.026 11.122 -10.837 9.145 -10.647 7.168 C-10.54 6.043 -10.432 4.917 -10.321 3.758 C-9.547 -1.716 -4.635 0 0 0 Z " fill="#1E1C1F" transform="translate(154.96372985839844,588.7694854736328)"/>
<path d="M0 0 C8.087 1.4 13.497 7.209 18.25 13.562 C25.054 24.047 26.473 36.45 28.25 48.562 C29.24 48.233 30.23 47.903 31.25 47.562 C31.58 45.913 31.91 44.262 32.25 42.562 C32.58 43.553 32.91 44.543 33.25 45.562 C34.045 45.441 34.839 45.32 35.658 45.195 C64.839 40.802 64.839 40.802 78.25 41.562 C78.58 40.243 78.91 38.923 79.25 37.562 C79.895 44.583 80.483 51.605 81.014 58.635 C81.204 60.997 81.438 63.345 81.699 65.699 C82.062 70.629 82.045 73.378 79.238 77.559 C77.022 80.068 74.763 82.354 72.25 84.562 C70.704 82.244 69.454 80.056 68.25 77.562 C62.728 78.397 57.316 79.629 51.875 80.875 C50.908 81.095 49.941 81.315 48.944 81.542 C41.689 83.203 34.472 84.987 27.27 86.863 C24.25 87.562 24.25 87.562 21.25 87.562 C21.965 82.948 23.703 79.791 26.094 75.844 C27.327 73.41 27.834 71.248 28.25 68.562 C26.6 68.562 24.95 68.562 23.25 68.562 C22.992 69.207 22.734 69.852 22.469 70.516 C22.067 71.521 21.664 72.527 21.25 73.562 C21.013 74.219 20.776 74.876 20.531 75.553 C18.529 80.928 16.415 86.492 12.25 90.562 C7.223 92.609 1.677 91.848 -3.629 91.566 C-10.524 91.554 -16.764 95.059 -21.75 99.562 C-22.41 99.562 -23.07 99.562 -23.75 99.562 C-24.08 101.543 -24.41 103.522 -24.75 105.562 C-24.09 105.892 -23.43 106.222 -22.75 106.562 C-22.075 105.997 -21.399 105.431 -20.703 104.848 C-19.811 104.114 -18.919 103.381 -18 102.625 C-16.677 101.529 -16.677 101.529 -15.328 100.41 C-11.235 97.477 -7.736 97.47 -2.781 97.281 C6.958 96.635 16.274 94.302 25.75 92.062 C28.447 91.435 31.144 90.811 33.842 90.188 C35.506 89.802 37.169 89.414 38.831 89.022 C42.956 88.056 47.058 87.201 51.25 86.562 C51.35 87.619 51.45 88.676 51.554 89.765 C51.938 93.781 52.336 97.795 52.739 101.809 C52.91 103.529 53.077 105.249 53.239 106.969 C54.715 122.539 57.312 137.674 62.25 152.562 C54.127 155.477 46.102 157.601 37.625 159.188 C36.043 159.493 36.043 159.493 34.43 159.805 C32.343 160.207 30.256 160.604 28.167 160.995 C26.363 161.346 24.564 161.723 22.774 162.14 C15.331 163.849 7.99 163.966 0.375 164 C-0.91 164.033 -2.195 164.066 -3.52 164.1 C-15.112 164.164 -24.756 161.147 -33.719 153.629 C-37.555 149.726 -40.236 145.401 -42.75 140.562 C-43.186 139.739 -43.621 138.915 -44.07 138.066 C-51.093 121.542 -47.052 99.339 -42.562 82.562 C-42.349 81.763 -42.135 80.963 -41.915 80.139 C-21.111 4.318 -21.111 4.318 0 0 Z " fill="#65656D" transform="translate(426.75,388.4375)"/>
<path d="M0 0 C2.197 1.685 4.326 3.422 6.445 5.203 C7.243 5.801 8.041 6.399 8.863 7.016 C11.903 9.591 14.37 12.458 16.82 15.578 C17.534 16.487 17.534 16.487 18.263 17.413 C22.969 23.589 29.445 32.253 29.445 40.203 C28.785 40.203 28.125 40.203 27.445 40.203 C27.445 40.863 27.445 41.523 27.445 42.203 C31.405 42.863 35.365 43.523 39.445 44.203 C39.445 44.533 39.445 44.863 39.445 45.203 C38.312 45.284 37.179 45.364 36.011 45.447 C31.734 45.752 27.457 46.062 23.179 46.375 C21.342 46.508 19.504 46.64 17.667 46.771 C7.718 47.476 -2.128 48.341 -12.005 49.744 C-18.209 50.547 -24.438 50.934 -30.68 51.328 C-31.934 51.414 -33.188 51.501 -34.48 51.59 C-42.517 52.115 -50.502 52.31 -58.555 52.203 C-58.225 50.883 -57.895 49.563 -57.555 48.203 C-73.065 48.203 -88.575 48.203 -104.555 48.203 C-104.555 47.543 -104.555 46.883 -104.555 46.203 C-103.895 46.203 -103.235 46.203 -102.555 46.203 C-102.493 45.481 -102.431 44.759 -102.367 44.016 C-101.31 40.356 -99.225 38.873 -96.555 36.203 C-95.828 34.224 -95.153 32.225 -94.555 30.203 C-97.139 30.486 -99.722 30.779 -102.305 31.078 C-103.034 31.157 -103.764 31.235 -104.516 31.316 C-109.821 31.919 -109.821 31.919 -114.555 34.203 C-115.05 35.193 -115.05 35.193 -115.555 36.203 C-114.565 36.038 -113.575 35.873 -112.555 35.703 C-108.527 35.118 -104.62 35.132 -100.555 35.203 C-103.259 39.259 -105.771 39.258 -110.34 40.359 C-111.071 40.638 -111.802 40.916 -112.555 41.203 C-112.885 42.193 -113.215 43.183 -113.555 44.203 C-111.575 44.203 -109.595 44.203 -107.555 44.203 C-109.437 46.528 -110.758 47.278 -113.617 48.328 C-118.229 50.169 -121.367 53.522 -124.957 56.863 C-132.382 63.552 -143.252 72.203 -153.555 72.203 C-154.398 68.497 -155.228 64.788 -156.055 61.078 C-156.293 60.031 -156.532 58.985 -156.777 57.906 C-157.116 56.379 -157.116 56.379 -157.461 54.82 C-157.67 53.888 -157.88 52.956 -158.096 51.996 C-158.59 48.989 -158.746 46.245 -158.555 43.203 C-156.867 41.254 -156.867 41.254 -154.555 39.516 C-149.904 35.722 -146.718 31.584 -143.379 26.621 C-141.618 24.287 -139.976 22.812 -137.555 21.203 C-136.895 21.533 -136.235 21.863 -135.555 22.203 C-136.215 23.193 -136.875 24.183 -137.555 25.203 C-133.342 22.914 -129.444 20.448 -125.555 17.641 C-120.21 13.861 -115.378 10.583 -108.555 11.203 C-108.555 12.193 -108.555 13.183 -108.555 14.203 C-109.802 14.71 -109.802 14.71 -111.074 15.227 C-112.161 15.673 -113.248 16.119 -114.367 16.578 C-115.986 17.239 -115.986 17.239 -117.637 17.914 C-120.662 19.151 -120.662 19.151 -123.555 21.203 C-123.885 22.193 -124.215 23.183 -124.555 24.203 C-123.841 23.77 -123.841 23.77 -123.113 23.328 C-115.973 19.541 -108.483 19.148 -100.555 20.203 C-98.609 21.73 -98.609 21.73 -97.555 23.203 C-98.412 23.241 -99.269 23.278 -100.152 23.316 C-106.564 23.685 -111.92 24.002 -117.555 27.203 C-118.05 28.193 -118.05 28.193 -118.555 29.203 C-118.03 29.059 -117.505 28.914 -116.965 28.766 C-108.52 26.742 -100.176 27.023 -91.555 27.203 C-91.555 25.883 -91.555 24.563 -91.555 23.203 C-93.04 22.708 -93.04 22.708 -94.555 22.203 C-95.254 20.887 -95.922 19.553 -96.555 18.203 C-97.215 17.873 -97.875 17.543 -98.555 17.203 C-98.134 12.143 -97.013 10.061 -93.18 6.766 C-84.468 -0.597 -75.306 -5.98 -64.555 -9.797 C-63.656 -10.118 -62.758 -10.439 -61.832 -10.77 C-41.317 -16.973 -17.383 -12.227 0 0 Z " fill="#141316" transform="translate(657.5546875,434.796875)"/>
<path d="M0 0 C8.571 -0.143 8.571 -0.143 12 1 C11.293 5.269 9.937 9.134 8.438 13.188 C6.671 17.488 6.671 17.488 6 22 C6.666 22.329 7.333 22.657 8.02 22.996 C15.484 26.848 21.733 31.424 28 37 C29.158 38.015 29.158 38.015 30.34 39.051 C44.397 52.169 54.32 71.245 58 90 C58.166 90.628 58.331 91.257 58.502 91.904 C60.167 98.449 60.347 104.767 60.312 111.5 C60.307 112.649 60.301 113.798 60.295 114.982 C59.895 143.253 49.564 170.393 30 191 C29.138 191.953 28.275 192.905 27.387 193.887 C9.753 212.617 -16.589 224.348 -42.238 225.273 C-71.775 225.874 -95.421 218.59 -117.308 198.19 C-134.585 181.526 -145.885 157.617 -146.566 133.449 C-146.612 130.527 -146.598 127.609 -146.562 124.688 C-146.558 123.924 -146.554 123.161 -146.55 122.374 C-146.456 110.324 -145.448 99.31 -141 88 C-140.738 87.305 -140.475 86.609 -140.205 85.893 C-128.981 56.629 -107.621 33.582 -79.159 20.579 C-72.922 17.848 -66.608 15.661 -60 14 C-59.149 13.776 -58.298 13.551 -57.422 13.32 C-41.464 9.747 -22.532 11.261 -7 16 C-6.662 15.18 -6.325 14.36 -5.977 13.516 C-5.308 11.899 -5.308 11.899 -4.625 10.25 C-3.964 8.649 -3.964 8.649 -3.289 7.016 C-2.267 4.624 -1.198 2.306 0 0 Z M-107 49 C-107.652 49.558 -108.305 50.116 -108.977 50.691 C-125.021 65.253 -136.607 90.549 -138 112 C-139.079 134.402 -139.079 134.402 -134 156 C-133.615 157.045 -133.229 158.091 -132.832 159.168 C-128.48 170.282 -122.888 180.031 -115 189 C-114.345 189.75 -113.69 190.5 -113.016 191.273 C-99.776 205.459 -79.142 216.715 -59.638 218.177 C-27.118 218.989 -0.501 210.659 23.5 187.938 C36.752 174.367 45.203 157.234 50 139 C50.299 137.973 50.598 136.945 50.906 135.887 C57.094 111.967 52.606 85.988 40.625 64.625 C31.317 49.552 19.215 37.939 4 29 C3.34 29 2.68 29 2 29 C-4.579 45.246 -10.906 61.566 -17 78 C-17.85 80.283 -18.701 82.566 -19.555 84.848 C-20.05 86.173 -20.542 87.5 -21.031 88.828 C-22.017 91.493 -23.045 94.096 -24.254 96.668 C-27.239 103.044 -27.212 108.579 -26.75 115.484 C-27.054 119.763 -28.312 121.709 -31 125 C-35.377 127.918 -38.785 128.64 -44 128 C-47.996 126.542 -50.443 124.772 -52.938 121.312 C-54.305 117.05 -54.973 113.419 -54 109 C-51.946 105.627 -49.56 102.78 -46 101 C-44.463 100.775 -42.92 100.592 -41.375 100.438 C-40.149 100.312 -40.149 100.312 -38.898 100.184 C-38.272 100.123 -37.645 100.062 -37 100 C-34.513 93.287 -32.026 86.575 -29.54 79.862 C-28.384 76.743 -27.229 73.624 -26.073 70.505 C-25.628 69.304 -25.183 68.103 -24.725 66.865 C-24.282 65.672 -23.84 64.479 -23.385 63.25 C-22.503 60.869 -21.623 58.487 -20.744 56.105 C-18.776 50.771 -16.795 45.444 -14.75 40.139 C-14.415 39.26 -14.08 38.38 -13.735 37.474 C-13.122 35.87 -12.501 34.269 -11.87 32.672 C-10.467 28.976 -9.798 26.771 -11 23 C-46.583 13.296 -80.453 24.87 -107 49 Z " fill="#141316" transform="translate(242,712)"/>
<path d="M0 0 C0.688 0.615 0.688 0.615 1.391 1.242 C2.004 1.781 2.618 2.32 3.25 2.875 C3.853 3.409 4.457 3.942 5.078 4.492 C6.908 6.08 6.908 6.08 9.051 6.789 C13.818 9.751 15.195 17.825 17 23 C17.25 23.682 17.5 24.363 17.757 25.065 C21.233 34.718 22.453 43.8 22.5 54.062 C22.509 55.632 22.509 55.632 22.519 57.234 C22.335 68.417 19.143 77.649 11.266 85.793 C2.936 93.256 -5.751 94.751 -16.723 94.465 C-28.966 93.58 -38.994 84.773 -46.805 75.965 C-52.044 69.409 -55.287 62.377 -56 54 C-56.568 54.119 -57.137 54.237 -57.723 54.359 C-61.97 55.068 -65.066 55.411 -68.938 53.312 C-72.398 50.7 -73.661 49.029 -74.371 44.781 C-74.549 38.678 -74.549 38.678 -71.875 35.375 C-69 34 -69 34 -66 33.875 C-61.927 35.403 -60.672 37.606 -58 41 C-57.01 41 -56.02 41 -55 41 C-54.645 34.846 -55.666 29.758 -57.344 23.832 C-57.975 21.107 -58.122 18.784 -58 16 C-57.157 16.238 -57.157 16.238 -56.297 16.48 C-49.677 17.978 -43.724 17.584 -37.809 14.203 C-33.917 11.614 -30.622 8.622 -27.312 5.312 C-25 3 -25 3 -22 1 C-21.01 1.66 -20.02 2.32 -19 3 C-15.04 3.337 -12.403 3.094 -9 1 C-8.01 1.99 -8.01 1.99 -7 3 C-4.429 3.648 -4.429 3.648 -2 4 C-1.34 2.68 -0.68 1.36 0 0 Z " fill="#F3F3F3" transform="translate(513,257)"/>
<path d="M0 0 C1.347 0.145 2.694 0.29 4.041 0.434 C7.299 0.784 10.556 1.139 13.812 1.5 C14.66 8.137 14.995 14.625 15 21.312 C15.012 22.201 15.024 23.09 15.037 24.006 C15.058 33.896 13.885 43.681 12.812 53.5 C5.627 53.526 -1.559 53.543 -8.745 53.555 C-11.185 53.56 -13.625 53.567 -16.065 53.575 C-19.591 53.588 -23.116 53.593 -26.641 53.598 C-28.254 53.605 -28.254 53.605 -29.9 53.613 C-45.962 53.614 -61.434 51.268 -77 47.438 C-77.664 47.275 -78.327 47.113 -79.011 46.946 C-82.282 46.111 -85.244 45.168 -88.188 43.5 C-89.115 16.355 -89.115 16.355 -84.188 6.5 C-82.432 6.514 -82.432 6.514 -80.641 6.527 C-66.316 6.366 -52.795 3.939 -38.843 0.939 C-25.366 -1.926 -13.681 -1.516 0 0 Z " fill="#65656D" transform="translate(502.1875,552.5)"/>
<path d="M0 0 C2.379 0.4 4.752 0.819 7.125 1.25 C7.79 1.36 8.455 1.469 9.141 1.582 C13.859 2.461 17.487 3.545 21 7 C22.123 10.575 22.393 14.152 22.688 17.875 C22.905 20.037 23.123 22.198 23.344 24.359 C23.5 26.01 23.5 26.01 23.66 27.693 C24.285 33.776 25.206 39.817 26.087 45.867 C26.266 47.143 26.266 47.143 26.449 48.445 C26.556 49.183 26.662 49.92 26.772 50.68 C27.045 53.463 27.035 56.206 27 59 C23.109 59.436 19.217 59.863 15.324 60.282 C13.366 60.494 11.408 60.714 9.451 60.934 C1.264 61.809 -6.768 62.188 -15 62 C-15.111 61.34 -15.221 60.68 -15.335 60 C-15.845 56.978 -16.36 53.958 -16.875 50.938 C-17.049 49.899 -17.223 48.861 -17.402 47.791 C-18.506 41.322 -18.506 41.322 -20.125 34.969 C-21.047 31.839 -21.158 29.244 -21 26 C-22.32 26 -23.64 26 -25 26 C-24.795 27.163 -24.59 28.325 -24.379 29.523 C-22.477 40.693 -21.392 51.679 -21 63 C-21.689 63.05 -22.378 63.1 -23.089 63.152 C-39.867 64.344 -39.867 64.344 -56.52 66.625 C-59.733 67.111 -62.759 67.151 -66 67 C-67.182 63.116 -68.152 59.308 -68.875 55.312 C-71.344 42.872 -75.784 30.314 -86.09 22.215 C-89.528 20.028 -93.207 18.462 -97 17 C-95.648 14.297 -94.399 14.232 -91.59 13.207 C-85.094 10.715 -79.028 7.52 -72.885 4.271 C-72.037 3.835 -71.19 3.399 -70.316 2.949 C-69.558 2.55 -68.799 2.152 -68.018 1.741 C-66 1 -66 1 -63 2 C-61.457 4.152 -61.457 4.152 -59.812 6.938 C-53.28 17.712 -53.28 17.712 -44 26 C-40.565 26.477 -40.565 26.477 -37 25 C-35.022 22.79 -33.387 20.519 -31.773 18.031 C-30 16 -30 16 -27.594 14.973 C-23.946 15.011 -22.754 16.481 -20.125 18.938 C-16.93 21.629 -15.288 22.925 -11.188 24 C-7.173 22.741 -6.053 21.403 -4.066 17.777 C-1.875 12.069 -0.963 6.015 0 0 Z " fill="#FEFEFE" transform="translate(526,367)"/>
<path d="M0 0 C0.121 1.051 0.242 2.101 0.367 3.184 C0.536 4.602 0.706 6.02 0.875 7.438 C0.954 8.125 1.032 8.813 1.113 9.521 C1.65 13.963 2.444 18.274 3.456 22.632 C4.034 25.147 4.558 27.671 5.078 30.199 C7.374 41.071 10.044 51.02 15 61 C17.473 60.656 17.473 60.656 20 60 C21.224 57.551 21.012 56.18 20.859 53.457 C20.538 42.191 20.538 42.191 22 37 C24.999 33.974 27.533 32.903 31.496 31.402 C36.207 29.517 39.171 26.593 42.781 23.113 C43.513 22.416 44.246 21.719 45 21 C45.721 20.304 46.442 19.609 47.184 18.892 C50.784 16.473 52.961 16.538 57.27 16.609 C59.139 16.624 59.139 16.624 61.046 16.64 C62.619 16.676 64.192 16.712 65.812 16.75 C73.33 16.874 73.33 16.874 81 17 C81 36.8 81 56.6 81 77 C63.442 77.169 46.033 76.957 28.5 76.062 C27.628 76.019 26.756 75.975 25.858 75.93 C23.353 75.804 20.848 75.671 18.344 75.535 C17.233 75.477 17.233 75.477 16.1 75.418 C11.678 75.166 7.37 74.684 3 74 C3 73.34 3 72.68 3 72 C6.96 70.35 10.92 68.7 15 67 C15 66.34 15 65.68 15 65 C8.565 65.495 8.565 65.495 2 66 C-3.74 52.061 -5.838 37.248 -7.75 22.375 C-7.942 20.901 -7.942 20.901 -8.137 19.398 C-8.882 13.235 -9.153 7.205 -9 1 C-5.902 0.159 -3.217 -0.089 0 0 Z " fill="#FEFEFE" transform="translate(491,472)"/>
<path d="M0 0 C5.602 0.024 10.664 0.215 15.938 2.188 C17.337 2.7 17.337 2.7 18.766 3.223 C30.221 7.698 38.214 12.685 44.039 23.766 C44.607 24.837 45.175 25.908 45.76 27.011 C46.355 28.142 46.95 29.273 47.562 30.438 C53.899 42.323 53.899 42.323 60.5 54.062 C61.071 55.076 61.071 55.076 61.653 56.11 C64.761 61.423 67.613 64.374 73.453 66.418 C74.685 66.734 75.918 67.05 77.188 67.375 C83.863 69.113 83.863 69.113 84.938 70.188 C90.655 69.774 95.237 68.025 100.434 65.695 C101.226 65.349 102.018 65.002 102.835 64.645 C105.352 63.542 107.864 62.428 110.375 61.312 C112.884 60.207 115.394 59.103 117.905 58.001 C119.461 57.318 121.016 56.631 122.569 55.941 C136.8 49.657 136.8 49.657 144.938 49.875 C145.994 49.893 145.994 49.893 147.072 49.911 C152.013 50.046 156.315 50.477 160.938 52.188 C161.978 52.552 163.018 52.917 164.09 53.293 C172.533 56.379 181.468 59.819 185.938 68.188 C186.288 71.382 186.023 74.16 184.938 77.188 C181.601 81.124 178.262 82.033 173.188 82.625 C160.8 82.295 145.235 76.724 136.027 68.477 C132.938 64.948 132.938 64.948 132.938 62.188 C117.822 67.393 103.23 74.041 88.938 81.188 C87.401 81.412 85.858 81.595 84.312 81.75 C83.087 81.876 83.087 81.876 81.836 82.004 C81.209 82.064 80.583 82.125 79.938 82.188 C79.651 83.071 79.651 83.071 79.358 83.972 C78.473 86.692 77.58 89.408 76.688 92.125 C76.387 93.051 76.087 93.977 75.777 94.932 C73.824 100.855 71.593 106.543 68.938 112.188 C64.421 112.264 60.347 112.29 55.938 111.188 C56.484 104.002 58.615 97.71 61 90.938 C61.746 88.809 62.488 86.679 63.223 84.547 C63.551 83.613 63.88 82.68 64.219 81.718 C65.12 78.985 65.12 78.985 64.938 75.188 C63.3 73.492 61.629 71.829 59.938 70.188 C58.602 68.074 57.346 65.908 56.16 63.707 C55.659 62.788 55.659 62.788 55.149 61.85 C54.091 59.904 53.045 57.953 52 56 C50.619 53.442 49.234 50.887 47.848 48.332 C47.515 47.718 47.183 47.103 46.841 46.47 C44.022 41.283 41.038 36.21 37.938 31.188 C37.154 31.348 36.37 31.509 35.562 31.675 C22.446 34.237 7.325 29.589 -3.707 22.484 C-8.756 18.733 -12.49 15.62 -13.562 9.188 C-12.895 5.181 -11.094 3.775 -8.062 1.188 C-6.116 -0.759 -2.572 0.013 0 0 Z " fill="#141316" transform="translate(211.0625,493.8125)"/>
<path d="M0 0 C4.901 0.501 9.737 1.043 14.562 2.062 C16.027 2.372 17.491 2.681 19 3 C18.67 8.28 18.34 13.56 18 19 C18.99 19 19.98 19 21 19 C21.144 17.989 21.289 16.979 21.438 15.938 C22.219 10.469 22.219 10.469 23 5 C27.969 5.514 32.29 6.234 37 8 C35.699 15.854 33.936 23.501 31.875 31.188 C31.598 32.235 31.321 33.282 31.035 34.361 C30.361 36.909 29.681 39.454 29 42 C25.04 41.67 21.08 41.34 17 41 C17 41.99 17 42.98 17 44 C20.3 44.66 23.6 45.32 27 46 C26.758 46.969 26.515 47.939 26.266 48.938 C26.106 49.577 25.946 50.216 25.781 50.875 C25.422 52.313 25.062 53.75 24.701 55.188 C23.793 58.809 22.892 62.432 22.02 66.062 C19.733 75.509 16.999 84.756 14 94 C10.7 93.67 7.4 93.34 4 93 C5.108 86.052 6.659 79.344 8.5 72.562 C10.435 65.423 12.018 58.343 13 51 C11.02 51.495 11.02 51.495 9 52 C8.34 54.97 7.68 57.94 7 61 C5.35 61 3.7 61 2 61 C2.66 57.04 3.32 53.08 4 49 C3.34 49 2.68 49 2 49 C1.518 50.249 1.04 51.499 0.562 52.75 C0.296 53.446 0.029 54.142 -0.246 54.859 C-1.137 57.281 -1.137 57.281 -2 61 C-5.63 60.67 -9.26 60.34 -13 60 C-12.013 54.993 -11.016 49.989 -9.938 45 C-9.704 43.917 -9.704 43.917 -9.465 42.812 C-9 41 -9 41 -8 39 C-7.658 36.668 -7.327 34.334 -7 32 C-6.48 29.431 -5.941 26.874 -5.371 24.316 C-5.217 23.616 -5.063 22.916 -4.905 22.194 C-4.418 19.983 -3.928 17.773 -3.438 15.562 C-3.105 14.053 -2.772 12.543 -2.439 11.033 C-1.629 7.355 -0.815 3.677 0 0 Z " fill="#1E1C1F" transform="translate(254,612)"/>
<path d="M0 0 C2 3 2 3 3 5 C4.32 5 5.64 5 7 5 C7.33 3.68 7.66 2.36 8 1 C22.373 0.886 36.659 0.974 51 2 C52.096 10.556 53.151 19.116 54.125 27.688 C54.212 28.441 54.3 29.194 54.39 29.97 C54.804 33.665 55.103 37.281 55 41 C47.102 43.73 39.273 44.971 31 46 C29.597 46.188 28.195 46.376 26.793 46.566 C20.494 47.401 14.37 48.115 8 48 C5.244 39.54 3.312 31.062 1.75 22.312 C1.575 21.364 1.4 20.415 1.22 19.437 C0.097 12.906 -0.203 6.621 0 0 Z " fill="#65656D" transform="translate(521,554)"/>
<path d="M0 0 C4.987 3.789 7.688 9.253 9.93 14.996 C9.93 15.656 9.93 16.316 9.93 16.996 C10.59 17.326 11.25 17.656 11.93 17.996 C10.68 18.829 9.43 19.663 8.18 20.496 C7.362 21.041 6.545 21.587 5.703 22.148 C3.772 23.435 1.84 24.718 -0.094 26 C-3.092 27.99 -6.083 29.99 -9.07 31.996 C-9.79 32.473 -10.509 32.95 -11.25 33.441 C-14.889 35.925 -17.437 38.485 -20.07 41.996 C-22.57 44.496 -22.57 44.496 -25.07 46.996 C-31.949 54.247 -37.232 62.069 -39.07 71.996 C-41.258 71.934 -41.258 71.934 -44.07 70.996 C-51.736 62.209 -54.454 51.526 -54.355 40.07 C-53.744 33.475 -50.665 27.73 -46.07 22.996 C-42.686 20.27 -39.586 19.287 -35.191 19.445 C-29.807 20.844 -26.068 25.729 -22.758 29.934 C-22.201 30.614 -21.644 31.295 -21.07 31.996 C-20.08 31.996 -19.09 31.996 -18.07 31.996 C-19.339 25.655 -23.281 22.014 -28.07 17.996 C-30.061 16.737 -31.875 15.874 -34.07 14.996 C-30.723 7.386 -23.379 2.981 -15.941 -0.113 C-10.561 -1.782 -5.215 -2.529 0 0 Z " fill="#C0C1C0" transform="translate(482.0703125,215.00390625)"/>
<path d="M0 0 C2.197 1.685 4.326 3.422 6.445 5.203 C7.243 5.801 8.041 6.399 8.863 7.016 C11.903 9.591 14.37 12.458 16.82 15.578 C17.296 16.184 17.772 16.789 18.263 17.413 C22.969 23.589 29.445 32.253 29.445 40.203 C21.525 40.863 13.605 41.523 5.445 42.203 C4.95 39.233 4.95 39.233 4.445 36.203 C2.091 33.432 2.091 33.432 -0.555 31.203 C-1.215 30.543 -1.875 29.883 -2.555 29.203 C-2.555 28.213 -2.555 27.223 -2.555 26.203 C1.914 25.99 5.268 26.612 9.445 28.203 C9.445 27.213 9.445 26.223 9.445 25.203 C6.173 23.021 5.777 23.139 2.133 23.328 C-0.293 23.121 -0.293 23.121 -2.555 22.203 C-4.41 19.373 -5.637 16.452 -6.988 13.352 C-11.094 5.098 -18.627 0.95 -27.105 -1.945 C-40.479 -5.247 -53.281 -1.593 -64.992 5.078 C-68.227 7.121 -70.793 9.379 -73.492 12.078 C-75.909 14.343 -76.982 15.155 -80.32 15.434 C-82.233 15.324 -84.145 15.197 -86.055 15.051 C-88.588 14.981 -88.588 14.981 -90.367 16.512 C-91.923 18.345 -91.923 18.345 -93.555 21.203 C-95.205 19.883 -96.855 18.563 -98.555 17.203 C-98.134 12.143 -97.013 10.061 -93.18 6.766 C-84.468 -0.597 -75.306 -5.98 -64.555 -9.797 C-63.656 -10.118 -62.758 -10.439 -61.832 -10.77 C-41.317 -16.973 -17.383 -12.227 0 0 Z " fill="#FEFEFE" transform="translate(657.5546875,434.796875)"/>
<path d="M0 0 C5.045 3.502 5.045 3.502 5.914 6.523 C6.216 13.986 2.951 18.956 -1.625 24.648 C-12.771 36.363 -12.771 36.363 -19.75 36.773 C-22.708 34.999 -24.495 32.324 -26.625 29.648 C-29.495 27.291 -29.495 27.291 -33 27.898 C-36.536 28.474 -36.536 28.474 -39.188 29.898 C-42.749 30.994 -44.397 29.327 -47.625 27.648 C-51.742 27.207 -53.91 27.207 -57.469 29.406 C-58.784 30.578 -58.784 30.578 -60.125 31.773 C-61.067 32.593 -62.01 33.413 -62.98 34.258 C-63.853 35.047 -64.726 35.836 -65.625 36.648 C-75.486 45.439 -75.486 45.439 -82.375 45.898 C-85.625 45.648 -85.625 45.648 -87.625 44.648 C-82.954 29.727 -59.282 17.751 -46.375 10.836 C-12.738 -6.559 -12.738 -6.559 0 0 Z " fill="#C0C1C0" transform="translate(546.625,224.3515625)"/>
<path d="M0 0 C7.26 0.99 14.52 1.98 22 3 C21.34 10.59 20.68 18.18 20 26 C14.06 26.33 8.12 26.66 2 27 C2 27.66 2 28.32 2 29 C7.61 29.33 13.22 29.66 19 30 C18.67 34.95 18.34 39.9 18 45 C11.4 45 4.8 45 -2 45 C-2 46.32 -2 47.64 -2 49 C4.27 49.33 10.54 49.66 17 50 C16 80.106 16 80.106 15 95 C12.083 94.691 9.166 94.378 6.25 94.062 C5.425 93.975 4.6 93.888 3.75 93.799 C2.951 93.712 2.152 93.625 1.328 93.535 C0.595 93.457 -0.138 93.378 -0.894 93.297 C-2.981 93.003 -4.966 92.549 -7 92 C-7.242 83.404 -6.483 74.923 -5.688 66.375 C-5.552 64.879 -5.417 63.383 -5.282 61.887 C-4.597 54.329 -3.886 46.774 -3.168 39.219 C-3.101 38.512 -3.034 37.806 -2.965 37.078 C-2.648 33.738 -2.329 30.399 -2.003 27.06 C-1.138 18.045 -0.529 9.04 0 0 Z " fill="#FEFEFE" transform="translate(151,595)"/>
<path d="M0 0 C0 0.99 0 1.98 0 3 C-1.247 3.507 -1.247 3.507 -2.52 4.023 C-3.606 4.469 -4.693 4.915 -5.812 5.375 C-6.891 5.816 -7.97 6.257 -9.082 6.711 C-12.107 7.948 -12.107 7.948 -15 10 C-15.33 10.99 -15.66 11.98 -16 13 C-15.287 12.567 -15.287 12.567 -14.559 12.125 C-7.418 8.338 0.072 7.945 8 9 C9.945 10.527 9.945 10.527 11 12 C10.143 12.037 9.286 12.075 8.402 12.113 C1.991 12.482 -3.366 12.799 -9 16 C-9.33 16.66 -9.66 17.32 -10 18 C-9.394 17.856 -8.788 17.711 -8.164 17.562 C-2.013 16.2 3.71 15.759 10 16 C9.505 17.485 9.505 17.485 9 19 C5.91 19.844 5.91 19.844 2.062 20.5 C-1.697 21.085 -1.697 21.085 -5 22 C-5.66 22.99 -6.32 23.98 -7 25 C-6.01 24.835 -5.02 24.67 -4 24.5 C0.027 23.915 3.935 23.929 8 24 C5.296 28.056 2.784 28.055 -1.785 29.156 C-2.516 29.435 -3.247 29.713 -4 30 C-4.495 31.485 -4.495 31.485 -5 33 C-3.02 33 -1.04 33 1 33 C-0.882 35.325 -2.204 36.075 -5.062 37.125 C-9.674 38.966 -12.812 42.319 -16.402 45.66 C-23.828 52.348 -34.697 61 -45 61 C-45.844 57.294 -46.673 53.585 -47.5 49.875 C-47.738 48.828 -47.977 47.782 -48.223 46.703 C-48.448 45.685 -48.674 44.666 -48.906 43.617 C-49.116 42.685 -49.325 41.753 -49.541 40.792 C-50.035 37.786 -50.191 35.042 -50 32 C-48.312 30.051 -48.312 30.051 -46 28.312 C-41.35 24.519 -38.163 20.38 -34.824 15.418 C-33.063 13.084 -31.421 11.609 -29 10 C-28.34 10.33 -27.68 10.66 -27 11 C-27.99 12.485 -27.99 12.485 -29 14 C-24.788 11.711 -20.889 9.245 -17 6.438 C-11.655 2.658 -6.824 -0.62 0 0 Z " fill="#F3F3F3" transform="translate(549,446)"/>
<path d="M0 0 C1.98 0 3.96 0 6 0 C6.238 16.419 6.163 32.82 5.555 49.23 C4.088 89.598 3.772 129.939 3.754 170.329 C3.752 175.758 3.744 181.186 3.735 186.615 C3.723 194.029 3.723 201.442 3.731 208.856 C3.734 211.63 3.733 214.404 3.728 217.179 C3.721 221.018 3.73 224.857 3.741 228.697 C3.735 230.377 3.735 230.377 3.729 232.091 C3.626 243.325 3.626 243.325 8.562 252.938 C9.367 253.618 10.171 254.299 11 255 C11.33 255.66 11.66 256.32 12 257 C9.687 256.86 7.375 256.713 5.062 256.562 C3.775 256.481 2.487 256.4 1.16 256.316 C-2 256 -2 256 -3 255 C-3.101 253.012 -3.131 251.02 -3.134 249.029 C-3.138 247.727 -3.142 246.426 -3.147 245.085 C-3.146 243.627 -3.146 242.169 -3.145 240.711 C-3.148 239.185 -3.152 237.658 -3.155 236.131 C-3.164 231.949 -3.167 227.767 -3.167 223.585 C-3.168 220.94 -3.17 218.296 -3.173 215.652 C-3.182 206.329 -3.186 197.005 -3.185 187.682 C-3.185 180.096 -3.192 172.509 -3.206 164.922 C-3.307 109.89 -2.646 54.978 0 0 Z " fill="#F3F3F3" transform="translate(432,609)"/>
<path d="M0 0 C0.33 1.32 0.66 2.64 1 4 C5.95 4 10.9 4 16 4 C16.33 21.49 16.66 38.98 17 57 C14.36 55.02 11.72 53.04 9 51 C6.745 49.77 4.451 48.608 2.121 47.527 C1.505 47.237 0.89 46.947 0.255 46.647 C-1.68 45.735 -3.621 44.835 -5.562 43.938 C-25.701 34.597 -25.701 34.597 -28 30 C-28.084 28.479 -28.107 26.953 -28.098 25.43 C-28.094 24.534 -28.091 23.638 -28.088 22.715 C-28.08 21.778 -28.071 20.841 -28.062 19.875 C-28.058 18.93 -28.053 17.985 -28.049 17.012 C-28.037 14.674 -28.021 12.337 -28 10 C-26.77 9.89 -25.54 9.781 -24.273 9.668 C-22.641 9.508 -21.008 9.348 -19.375 9.188 C-18.163 9.082 -18.163 9.082 -16.926 8.975 C-10.667 8.339 -5.949 7.206 -1.625 2.312 C-1.089 1.549 -0.553 0.786 0 0 Z " fill="#FEFEFE" transform="translate(514,863)"/>
<path d="M0 0 C4.919 0.763 9.425 2.5 14.078 4.203 C15.898 4.861 17.719 5.518 19.539 6.176 C22.376 7.205 25.212 8.236 28.048 9.269 C39.932 13.591 51.815 17.612 64 21 C65.248 26 64.168 29.355 62.375 34.062 C62.1 34.812 61.825 35.561 61.542 36.333 C59.535 41.746 57.377 47.091 55.078 52.387 C53.91 55.219 52.939 58.085 52 61 C51.34 61 50.68 61 50 61 C49.408 59.258 49.408 59.258 48.805 57.48 C47.122 53.002 44.821 49.243 42.125 45.312 C41.703 44.675 41.282 44.038 40.848 43.381 C38.222 39.49 35.337 36.32 32 33 C32 32.34 32 31.68 32 31 C31.429 30.745 30.858 30.49 30.27 30.227 C27.751 28.865 25.85 27.25 23.688 25.375 C19.434 21.911 15.076 19.187 10.25 16.625 C9.624 16.292 8.999 15.958 8.354 15.615 C4.657 13.703 0.981 12.209 -3 11 C-2.691 9.541 -2.378 8.083 -2.062 6.625 C-1.888 5.813 -1.714 5.001 -1.535 4.164 C-1 2 -1 2 0 0 Z " fill="#3E3E3F" transform="translate(641,409)"/>
<path d="M0 0 C6.027 4.351 11.08 9.097 14 16 C14.25 18.938 14.25 18.938 14 21 C10.137 20.448 8.693 18.693 6 16 C-1.255 12.563 -8.332 12.978 -15.832 15.531 C-19.174 16.746 -22.477 18.046 -25.777 19.371 C-37.721 24.091 -51.54 23.328 -63.398 18.777 C-66.171 17.949 -67.362 17.89 -70 19 C-70.66 19.66 -71.32 20.32 -72 21 C-74.625 21.125 -74.625 21.125 -77 21 C-73.25 15.25 -73.25 15.25 -71 13 C-69.309 13.064 -67.621 13.2 -65.938 13.375 C-62.497 13.442 -60.632 13.432 -57.766 11.473 C-56.335 10.072 -54.916 8.658 -53.508 7.234 C-39.094 -5.608 -16.982 -9.372 0 0 Z " fill="#141316" transform="translate(640,436)"/>
<path d="M0 0 C1.32 0 2.64 0 4 0 C4.134 8.036 4.134 8.036 3 12 C3.759 12.061 4.519 12.121 5.301 12.184 C6.295 12.267 7.289 12.351 8.312 12.438 C9.299 12.519 10.285 12.6 11.301 12.684 C14 13 14 13 17 14 C17.33 11.03 17.66 8.06 18 5 C18.66 5 19.32 5 20 5 C20.103 4.361 20.206 3.721 20.312 3.062 C20.539 2.382 20.766 1.701 21 1 C21.99 0.67 22.98 0.34 24 0 C23.548 5.915 22.842 11.352 21 17 C21.66 17.33 22.32 17.66 23 18 C22.34 18.33 21.68 18.66 21 19 C20.252 20.924 20.252 20.924 19.711 23.254 C19.492 24.108 19.273 24.962 19.047 25.842 C18.714 27.189 18.714 27.189 18.375 28.562 C18.146 29.464 17.916 30.366 17.68 31.295 C17.113 33.528 16.553 35.763 16 38 C17.986 37.967 19.971 37.935 21.957 37.902 C24 38 24 38 27 39 C27.186 37.175 27.186 37.175 27.375 35.312 C27.789 31.935 28.546 29.102 30 26 C30.99 26.33 31.98 26.66 33 27 C32.67 30.63 32.34 34.26 32 38 C33.32 38.33 34.64 38.66 36 39 C36.66 36.03 37.32 33.06 38 30 C39.32 29.67 40.64 29.34 42 29 C41.599 38.115 39.845 46.469 37.438 55.25 C37.108 56.484 36.779 57.717 36.439 58.988 C35.635 61.995 34.822 64.998 34 68 C32.333 68 30.667 68 29 68 C29.643 64.729 30.29 61.458 30.938 58.188 C31.211 56.794 31.211 56.794 31.49 55.373 C31.667 54.48 31.845 53.588 32.027 52.668 C32.19 51.846 32.352 51.024 32.519 50.177 C33 48 33 48 34 45 C32.68 45 31.36 45 30 45 C29.816 46.456 29.816 46.456 29.629 47.941 C29.001 52.34 27.984 56.622 26.938 60.938 C26.751 61.717 26.565 62.496 26.373 63.299 C25.918 65.2 25.459 67.1 25 69 C24.67 67.68 24.34 66.36 24 65 C23.34 65 22.68 65 22 65 C21.568 57.651 23.182 51.098 25 44 C21.7 43.67 18.4 43.34 15 43 C14.734 44.204 14.469 45.408 14.195 46.648 C13.839 48.224 13.482 49.8 13.125 51.375 C12.951 52.169 12.777 52.963 12.598 53.781 C12.424 54.542 12.25 55.302 12.07 56.086 C11.913 56.788 11.756 57.489 11.594 58.212 C11 60 11 60 9 62 C8.505 61.505 8.505 61.505 8 61 C7.34 61.99 6.68 62.98 6 64 C5.769 58.498 6.565 53.861 8 48.562 C8.286 47.465 8.286 47.465 8.578 46.346 C9.045 44.562 9.521 42.781 10 41 C7.69 41 5.38 41 3 41 C2.618 39.344 2.286 37.675 2 36 C3 35 3 35 11 34 C12.32 28.72 13.64 23.44 15 18 C10.71 17.67 6.42 17.34 2 17 C2.041 17.969 2.083 18.939 2.125 19.938 C2.126 22.78 1.786 25.283 1.117 28.043 C0.307 31.544 -0.387 35.044 -1 38.586 C-1.165 39.536 -1.33 40.486 -1.5 41.465 C-1.837 43.428 -2.17 45.391 -2.5 47.355 C-2.748 48.769 -2.748 48.769 -3 50.211 C-3.144 51.06 -3.289 51.908 -3.438 52.783 C-4 55 -4 55 -6 58 C-6.66 57.67 -7.32 57.34 -8 57 C-8.254 50.169 -7.274 43.838 -6.062 37.125 C-4.752 29.76 -3.619 22.458 -3 15 C-3.66 15 -4.32 15 -5 15 C-5.33 14.01 -5.66 13.02 -6 12 C-4.68 11.67 -3.36 11.34 -2 11 C-1.34 7.37 -0.68 3.74 0 0 Z " fill="#141316" transform="translate(225,634)"/>
<path d="M0 0 C5.731 -0.155 10.893 0.348 16.5 1.5 C17.227 1.643 17.954 1.786 18.703 1.934 C20.47 2.282 22.235 2.64 24 3 C22.786 16.838 20.662 30.369 18 44 C16.563 44.027 15.125 44.046 13.688 44.062 C12.887 44.074 12.086 44.086 11.262 44.098 C9 44 9 44 6 43 C5.974 42.036 5.948 41.072 5.922 40.078 C5.865 38.815 5.808 37.552 5.75 36.25 C5.704 34.997 5.657 33.744 5.609 32.453 C4.916 28.526 4.089 27.412 1 25 C0.01 24.34 -0.98 23.68 -2 23 C-2.419 17.802 -1.697 12.708 -1 7.562 C-0.905 6.831 -0.809 6.099 -0.711 5.346 C-0.478 3.563 -0.24 1.782 0 0 Z " fill="#FEFEFE" transform="translate(177,599)"/>
<path d="M0 0 C-0.66 0.66 -1.32 1.32 -2 2 C-2.33 2.99 -2.66 3.98 -3 5 C-4.961 5.949 -4.961 5.949 -7.375 6.688 C-8.166 6.939 -8.958 7.19 -9.773 7.449 C-12 8 -12 8 -15 8 C-15.103 8.639 -15.206 9.279 -15.312 9.938 C-15.539 10.618 -15.766 11.299 -16 12 C-19.124 13.041 -20.601 12.904 -23.812 12.625 C-32.597 12.532 -41.582 17.287 -47.875 23.312 C-50.207 25.69 -50.207 25.69 -50 28 C-49.175 28.33 -48.35 28.66 -47.5 29 C-41.768 31.88 -37.014 36.634 -34.5 42.5 C-34.335 43.325 -34.17 44.15 -34 45 C-35.98 45.495 -35.98 45.495 -38 46 C-38.699 45.218 -39.397 44.435 -40.117 43.629 C-41.036 42.607 -41.956 41.585 -42.875 40.562 C-43.335 40.046 -43.795 39.53 -44.27 38.998 C-47.523 35.391 -48.777 34.124 -53.688 33.625 C-57.797 33.7 -60.272 34.819 -63.461 37.367 C-69.137 43.389 -70.296 50.847 -70.219 58.801 C-69.686 66.591 -66.642 73.201 -63 80 C-62.67 80.66 -62.34 81.32 -62 82 C-62.938 84.625 -62.938 84.625 -64 87 C-68.344 83.138 -70.78 79.36 -73 74 C-73.302 73.282 -73.603 72.564 -73.914 71.824 C-77.026 63.172 -77.929 51.682 -74.438 43 C-71.191 37.042 -67.204 31.735 -60.875 29 C-56.737 27.205 -55.414 24.859 -53.25 21.016 C-48.887 13.981 -40.585 9.674 -33 7 C-29.385 6.577 -25.836 6.44 -22.199 6.336 C-18.171 5.913 -15.937 4.578 -12.738 2.215 C-8.888 -0.476 -4.45 -1.78 0 0 Z " fill="#1E1C1F" transform="translate(499,202)"/>
<path d="M0 0 C0.33 1.32 0.66 2.64 1 4 C1.881 3.909 2.763 3.818 3.671 3.725 C6.994 3.385 10.317 3.05 13.64 2.718 C15.069 2.575 16.497 2.429 17.926 2.282 C26.298 1.418 34.571 0.758 43 1 C45.037 4.757 45.446 7.843 45.75 12.125 C45.897 13.985 45.897 13.985 46.047 15.883 C46 19 46 19 44 21 C43.691 20.34 43.381 19.68 43.062 19 C40.667 16.677 40.168 16.703 36.965 16.684 C31.744 16.808 27.34 18.197 22.5 20.062 C21.256 20.529 21.256 20.529 19.987 21.004 C13.792 23.434 8.91 26.488 4 31 C3.67 31 3.34 31 3 31 C2.945 30.374 2.889 29.749 2.832 29.104 C2.58 26.277 2.321 23.451 2.062 20.625 C1.975 19.64 1.888 18.655 1.799 17.641 C1.712 16.7 1.625 15.759 1.535 14.789 C1.457 13.92 1.378 13.05 1.297 12.155 C1.111 9.955 1.111 9.955 0 8 C-0.134 5.328 -0.043 2.677 0 0 Z " fill="#65656D" transform="translate(510,425)"/>
<path d="M0 0 C4.317 3.397 7.841 6.942 11.188 11.312 C11.651 11.91 12.114 12.507 12.592 13.123 C31 37.133 31 37.133 31 42 C28.65 43.522 26.308 44.935 23.875 46.312 C19.891 48.579 16.113 50.792 12.633 53.793 C10 56 10 56 8 56 C5.269 43.092 3.045 30.2 1.299 17.123 C1.044 15.31 0.738 13.506 0.422 11.703 C0.019 9.123 -0.102 6.732 -0.062 4.125 C-0.053 3.344 -0.044 2.563 -0.035 1.758 C-0.024 1.178 -0.012 0.598 0 0 Z " fill="#65656D" transform="translate(553,381)"/>
<path d="M0 0 C2.801 1.542 3.502 2.379 5.375 5.188 C5.375 6.507 5.375 7.827 5.375 9.188 C4.235 9.118 3.096 9.048 1.922 8.977 C-9.367 8.513 -18.654 10.14 -29.332 13.777 C-42.68 18.294 -57.73 17.589 -70.625 12.188 C-72.37 11.59 -74.12 11.005 -75.875 10.438 C-77.112 10.025 -78.35 9.613 -79.625 9.188 C-78.348 6.338 -77.171 4.06 -74.625 2.188 C-72.609 2.262 -72.609 2.262 -70.375 2.875 C-69.648 3.064 -68.921 3.254 -68.172 3.449 C-66.23 4.012 -64.301 4.621 -62.379 5.25 C-58.083 6.323 -54.218 6.532 -49.812 6.5 C-49.014 6.495 -48.216 6.49 -47.394 6.485 C-41.344 6.365 -36.255 5.461 -30.625 3.188 C-10.466 -4.857 -10.466 -4.857 0 0 Z " fill="#FEFEFE" transform="translate(645.625,450.8125)"/>
<path d="M0 0 C2.617 1.86 4.717 3.717 7 6 C7 6.33 7 6.66 7 7 C5.8 6.919 4.6 6.838 3.363 6.754 C-6.41 6.31 -14.381 6.997 -23.562 10.5 C-33.229 14.168 -45.493 17.075 -55.527 12.965 C-56.256 12.487 -56.256 12.487 -57 12 C-42.661 -3.44 -19.02 -10.991 0 0 Z " fill="#FEFEFE" transform="translate(639,440)"/>
<path d="M0 0 C2 0.812 2 0.812 5 2.812 C4.872 10.87 2.721 15.165 -3 20.812 C-17.983 33.812 -17.983 33.812 -23 33.812 C-25.974 28.935 -26.248 26.351 -25 20.812 C-23.732 17.786 -22.209 14.934 -20.625 12.062 C-20.225 11.308 -19.826 10.554 -19.414 9.777 C-15.898 3.266 -15.898 3.266 -13 0.812 C-9.252 0.344 -8.233 0.657 -5 2.812 C-4.587 2.297 -4.175 1.781 -3.75 1.25 C-2 -0.188 -2 -0.188 0 0 Z " fill="#3E3E3F" transform="translate(719,344.1875)"/>
<path d="M0 0 C0 3.541 -0.66 4.183 -2.812 6.875 C-4.593 9.117 -5.956 10.892 -7.035 13.562 C-9.258 16.32 -9.669 16.405 -13.009 16.843 C-14.688 16.968 -16.369 17.067 -18.051 17.145 C-19.388 17.234 -19.388 17.234 -20.752 17.325 C-23.605 17.51 -26.458 17.661 -29.312 17.812 C-31.223 17.932 -33.134 18.054 -35.045 18.178 C-49.413 19.082 -49.413 19.082 -56 19 C-55.135 17.908 -54.258 16.827 -53.375 15.75 C-52.888 15.147 -52.4 14.543 -51.898 13.922 C-47.457 9.425 -43.31 7.544 -37.125 6.562 C-31.496 5.604 -26.27 4.173 -20.875 2.312 C-13.84 -0.069 -7.447 -0.574 0 0 Z " fill="#FEFEFE" transform="translate(646,463)"/>
<path d="M0 0 C5.28 0.66 10.56 1.32 16 2 C14.641 10.685 12.897 19.197 10.875 27.75 C10.598 28.936 10.321 30.122 10.035 31.344 C9.36 34.23 8.681 37.115 8 40 C3.38 39.34 -1.24 38.68 -6 38 C-5.227 29.905 -3.846 21.942 -2.438 13.938 C-2.201 12.581 -1.965 11.225 -1.729 9.869 C-1.155 6.579 -0.578 3.289 0 0 Z " fill="#FEFEFE" transform="translate(234,608)"/>
<path d="M0 0 C3.569 2.888 4.78 5.046 6.703 9.188 C6.703 10.507 6.703 11.827 6.703 13.188 C6.189 13.414 5.675 13.641 5.146 13.874 C2.789 14.915 0.434 15.957 -1.922 17 C-3.134 17.535 -3.134 17.535 -4.371 18.08 C-7.894 19.641 -11.347 21.214 -14.758 23.012 C-16.015 23.594 -16.015 23.594 -17.297 24.188 C-17.957 23.858 -18.617 23.528 -19.297 23.188 C-19.4 22.363 -19.503 21.537 -19.609 20.688 C-20.996 13.626 -24.452 8.362 -30.297 4.188 C-30.297 3.528 -30.297 2.868 -30.297 2.188 C-21.048 -1.67 -9.321 -5.124 0 0 Z " fill="#C0C1C0" transform="translate(514.296875,207.8125)"/>
<path d="M0 0 C1.437 -0.027 2.875 -0.046 4.312 -0.062 C5.513 -0.08 5.513 -0.08 6.738 -0.098 C9 0 9 0 12 1 C11.758 1.969 11.515 2.939 11.266 3.938 C11.106 4.577 10.946 5.216 10.781 5.875 C10.422 7.313 10.062 8.75 9.701 10.188 C8.793 13.809 7.892 17.432 7.02 21.062 C4.733 30.509 1.999 39.756 -1 49 C-4.3 48.67 -7.6 48.34 -11 48 C-9.78 40.349 -7.985 32.976 -5.969 25.507 C-3.709 17.063 -1.828 8.547 0 0 Z " fill="#E9E9E9" transform="translate(269,657)"/>
<path d="M0 0 C4.29 0.33 8.58 0.66 13 1 C12.45 7.048 11.096 12.306 9 18 C5.04 18.495 5.04 18.495 1 19 C1 20.32 1 21.64 1 23 C3.31 23.33 5.62 23.66 8 24 C7.416 32.316 5.262 40.015 3 48 C-0.3 48 -3.6 48 -7 48 C-7.951 44.196 -8.023 43.119 -7.188 39.535 C-5.643 32.469 -4.6 25.336 -3.5 18.189 C-2.541 12.063 -1.419 6.037 0 0 Z " fill="#F3F3F3" transform="translate(227,651)"/>
<path d="M0 0 C6.861 0.42 12.893 2.545 19.316 4.844 C22.964 5.989 26.219 6.572 30 7 C28.439 10.831 25.932 13.141 23 16 C22.34 16.99 21.68 17.98 21 19 C18.517 19.267 16.285 19.349 13.805 19.293 C13.097 19.289 12.39 19.284 11.661 19.28 C9.399 19.263 7.137 19.226 4.875 19.188 C3.342 19.172 1.81 19.159 0.277 19.146 C-3.482 19.113 -7.241 19.062 -11 19 C-11 18.34 -11 17.68 -11 17 C-10.34 17 -9.68 17 -9 17 C-8.938 16.278 -8.876 15.556 -8.812 14.812 C-7.748 11.128 -5.813 9.539 -3 7 C-0.64 4.64 -0.509 3.221 0 0 Z " fill="#FEFEFE" transform="translate(564,464)"/>
<path d="M0 0 C4.62 0 9.24 0 14 0 C14.226 7.236 13.377 13.943 12.125 21.062 C11.951 22.1 11.777 23.137 11.598 24.205 C10.626 29.881 9.454 35.429 8 41 C7.644 42.996 7.301 44.995 7 47 C4.69 47 2.38 47 0 47 C0 31.49 0 15.98 0 0 Z " fill="#F3F3F3" transform="translate(208,650)"/>
<path d="M0 0 C2.709 0.142 5.417 0.288 8.125 0.438 C9.266 0.496 9.266 0.496 10.43 0.557 C14.685 0.795 18.804 1.202 23 2 C23.25 8.651 22.74 14.57 21 21 C12.921 21.096 5.017 21.125 -3 20 C-3.485 13.055 -1.693 6.701 0 0 Z " fill="#FEFEFE" transform="translate(206,604)"/>
<path d="M0 0 C4.969 0.514 9.29 1.234 14 3 C12.699 10.854 10.936 18.501 8.875 26.188 C8.598 27.235 8.321 28.282 8.035 29.361 C7.361 31.909 6.681 34.454 6 37 C2.04 36.34 -1.92 35.68 -6 35 C-4.929 23.224 -2.719 11.502 0 0 Z " fill="#FEFEFE" transform="translate(277,617)"/>
<path d="M0 0 C7.685 5.094 7.685 5.094 9 8.875 C9 9.576 9 10.277 9 11 C6.69 11.66 4.38 12.32 2 13 C2 14.65 2 16.3 2 18 C-3.601 18.434 -9.202 18.861 -14.803 19.282 C-16.703 19.425 -18.603 19.571 -20.502 19.718 C-31.02 20.533 -41.443 21.266 -52 21 C-51.67 19.68 -51.34 18.36 -51 17 C-52.32 16.34 -53.64 15.68 -55 15 C-51.09 14.71 -47.18 14.425 -43.269 14.146 C-41.3 14.004 -39.332 13.857 -37.363 13.711 C-29.559 13.156 -21.824 12.868 -14 13 C-14 12.34 -14 11.68 -14 11 C-13.274 10.939 -12.549 10.879 -11.801 10.816 C-8.071 9.729 -6.68 7.876 -4.188 4.938 C-3.397 4.018 -2.607 3.099 -1.793 2.152 C-1.201 1.442 -0.61 0.732 0 0 Z " fill="#1E1C1F" transform="translate(651,466)"/>
<path d="M0 0 C2.208 1.407 3.467 2.802 5.086 4.852 C9.461 10.057 14.683 14.117 20.023 18.289 C18.738 21.852 17.225 24.618 14.898 27.602 C14.36 28.299 13.821 28.996 13.266 29.715 C12.856 30.234 12.446 30.754 12.023 31.289 C7.829 30.806 6.284 28.671 3.711 25.477 C-8.174 10.359 -8.174 10.359 -7.801 4.559 C-6.977 2.289 -6.977 2.289 -4.664 0.352 C-1.977 -0.711 -1.977 -0.711 0 0 Z " fill="#C0C1C0" transform="translate(473.9765625,357.7109375)"/>
<path d="M0 0 C0 4.62 0 9.24 0 14 C-3.52 14.337 -7.041 14.67 -10.562 15 C-12.048 15.143 -12.048 15.143 -13.564 15.289 C-14.534 15.379 -15.504 15.47 -16.504 15.562 C-17.389 15.646 -18.274 15.73 -19.186 15.816 C-22.451 16.029 -25.728 16 -29 16 C-29 11.05 -29 6.1 -29 1 C-19.315 0.357 -9.712 -0.123 0 0 Z " fill="#FEFEFE" transform="translate(565,866)"/>
<path d="M0 0 C4.901 0.501 9.737 1.043 14.562 2.062 C15.409 2.239 16.256 2.416 17.129 2.598 C17.746 2.73 18.364 2.863 19 3 C18.698 14.723 15.702 26.893 12 38 C10.68 38 9.36 38 8 38 C8.368 30.398 10.086 23.583 12.272 16.334 C13.423 12.449 14.319 9.103 14 5 C12.101 4.99 12.101 4.99 10 6 C8.581 8.222 7.446 10.293 6.328 12.66 C6.001 13.325 5.674 13.989 5.336 14.674 C4.294 16.797 3.272 18.929 2.25 21.062 C1.547 22.504 0.842 23.945 0.137 25.385 C-1.59 28.916 -3.3 32.456 -5 36 C-5.66 36 -6.32 36 -7 36 C-6.239 28.375 -4.575 20.979 -2.938 13.5 C-2.653 12.188 -2.368 10.875 -2.084 9.562 C-1.392 6.374 -0.698 3.187 0 0 Z " fill="#F3F3F3" transform="translate(254,612)"/>
<path d="M0 0 C9.57 0 19.14 0 29 0 C29 4.29 29 8.58 29 13 C19.1 13 9.2 13 -1 13 C-1 4 -1 4 0 0 Z " fill="#F3F3F3" transform="translate(450,873)"/>
<path d="M0 0 C1.32 0 2.64 0 4 0 C4.1 6.139 3.869 11.916 3 18 C2.915 21.668 2.94 25.331 3 29 C7.437 30.911 11.223 31.514 16 32 C15.859 33.938 15.712 35.875 15.562 37.812 C15.481 38.891 15.4 39.97 15.316 41.082 C15 44 15 44 14 47 C8.187 47.208 3.621 46.5 -2 45 C-2.102 34.487 -2.049 24.004 -1.562 13.5 C-1.523 12.611 -1.484 11.722 -1.444 10.806 C-1.402 9.973 -1.36 9.14 -1.316 8.281 C-1.261 7.184 -1.261 7.184 -1.205 6.064 C-0.996 3.963 -0.563 2.032 0 0 Z " fill="#F3F3F3" transform="translate(173,646)"/>
<path d="M0 0 C4.205 2.57 6.212 6.639 7.418 11.301 C7.763 12.762 8.103 14.224 8.438 15.688 C10.354 23.42 13.305 29.974 17.391 36.804 C20.287 41.774 20.287 41.774 20.07 45.293 C19.25 47.375 19.25 47.375 18.25 48.375 C15.579 48.516 12.926 48.417 10.25 48.375 C10.25 47.385 10.25 46.395 10.25 45.375 C11.9 45.375 13.55 45.375 15.25 45.375 C14.731 44.322 14.211 43.269 13.676 42.184 C2.038 18.253 2.038 18.253 1.25 5.375 C-6.389 5.404 -11.416 6.788 -17.754 11.098 C-19.75 12.375 -19.75 12.375 -21.75 12.375 C-22.188 10.25 -22.188 10.25 -21.75 7.375 C-15.641 0.492 -9.049 -2.057 0 0 Z " fill="#141316" transform="translate(496.75,267.625)"/>
<path d="M0 0 C1.32 0 2.64 0 4 0 C9.351 24.838 9.351 24.838 9.824 36.93 C9.986 39.754 10.384 42.307 11 45.062 C11.906 49.173 12.422 53.246 12.812 57.438 C12.922 58.612 13.032 59.786 13.145 60.996 C13 64 13 64 11.637 65.91 C10 67 10 67 8 67 C7.505 67.99 7.505 67.99 7 69 C6.93 68.04 6.86 67.081 6.788 66.092 C5.543 49.216 4.3 32.436 1.271 15.768 C0.305 10.405 -0.186 5.452 0 0 Z " fill="#1E1C1F" transform="translate(501,393)"/>
<path d="M0 0 C1.48 0.14 2.959 0.288 4.438 0.438 C5.673 0.559 5.673 0.559 6.934 0.684 C9 1 9 1 10 2 C10.738 10.806 9.281 18.216 5 26 C1.281 26 0.682 25.141 -2 22.688 C-2.681 22.073 -3.361 21.458 -4.062 20.824 C-4.702 20.222 -5.341 19.62 -6 19 C-6.866 18.205 -6.866 18.205 -7.75 17.395 C-9 16 -9 16 -9 14 C-8.257 13.505 -7.515 13.01 -6.75 12.5 C-2.878 8.98 -1.665 4.874 0 0 Z " fill="#C0C1C0" transform="translate(511,360)"/>
<path d="M0 0 C-0.66 0.66 -1.32 1.32 -2 2 C-2.33 2.99 -2.66 3.98 -3 5 C-4.961 5.949 -4.961 5.949 -7.375 6.688 C-8.166 6.939 -8.958 7.19 -9.773 7.449 C-12 8 -12 8 -15 8 C-15.103 8.639 -15.206 9.279 -15.312 9.938 C-15.539 10.618 -15.766 11.299 -16 12 C-19.124 13.041 -20.601 12.904 -23.812 12.625 C-33.912 12.504 -42.652 18.563 -50 25 C-49.67 23.68 -49.34 22.36 -49 21 C-49.66 21 -50.32 21 -51 21 C-51.99 22.98 -52.98 24.96 -54 27 C-54.66 27 -55.32 27 -56 27 C-54.82 20.256 -50.255 16.859 -45 13 C-37.396 8.034 -31.206 6.594 -22.199 6.336 C-18.171 5.913 -15.937 4.578 -12.738 2.215 C-8.888 -0.476 -4.45 -1.78 0 0 Z " fill="#141316" transform="translate(499,202)"/>
<path d="M0 0 C6.6 0 13.2 0 20 0 C19.54 5.452 19.074 10.631 18 16 C12.39 16 6.78 16 1 16 C0 9 0 9 0 0 Z " fill="#F3F3F3" transform="translate(206,629)"/>
<path d="M0 0 C0.495 2.475 0.495 2.475 1 5 C-7.489 7.971 -15.793 9.51 -24.688 10.625 C-25.707 10.759 -26.726 10.893 -27.775 11.031 C-37.341 12.257 -37.341 12.257 -41 12 C-41.66 11.34 -42.32 10.68 -43 10 C-42.464 6.464 -42.464 6.464 -41 5 C-39.365 4.725 -37.721 4.508 -36.074 4.316 C-35.055 4.194 -34.036 4.072 -32.986 3.947 C-31.897 3.82 -30.809 3.693 -29.688 3.562 C-22.174 2.662 -14.707 1.737 -7.27 0.332 C-4.818 -0.027 -2.474 -0.057 0 0 Z " fill="#1E1C1F" transform="translate(671,505)"/>
<path d="M0 0 C0.66 0 1.32 0 2 0 C1.93 1.109 1.861 2.217 1.789 3.359 C1.733 4.823 1.678 6.286 1.625 7.75 C1.575 8.48 1.524 9.209 1.473 9.961 C1.343 12.411 1.343 12.411 2 16 C2.99 16.66 3.98 17.32 5 18 C5.99 18.66 6.98 19.32 8 20 C8.459 23.047 8.582 25.25 8.375 28.25 C8.348 28.995 8.321 29.74 8.293 30.508 C8.223 32.34 8.115 34.17 8 36 C6.515 35.505 6.515 35.505 5 35 C4.974 34.325 4.948 33.649 4.922 32.953 C4.657 27.242 4.657 27.242 1.938 22.375 C1.298 21.921 0.659 21.467 0 21 C0.023 21.699 0.046 22.397 0.07 23.117 C0.097 24.482 0.097 24.482 0.125 25.875 C0.148 26.78 0.171 27.685 0.195 28.617 C0 31 0 31 -2 33 C-5.044 28.434 -4.128 24.433 -4 19 C-9.61 19 -15.22 19 -21 19 C-21 17.68 -21 16.36 -21 15 C-15.06 15 -9.12 15 -3 15 C-3 12.03 -3 9.06 -3 6 C-1.636 1.636 -1.636 1.636 0 0 Z " fill="#141316" transform="translate(174,606)"/>
<path d="M0 0 C6.625 -0.125 6.625 -0.125 10 1 C9.356 6.553 8.499 12.013 7.438 17.5 C7.299 18.227 7.16 18.954 7.018 19.703 C6.681 21.469 6.341 23.235 6 25 C2.37 24.67 -1.26 24.34 -5 24 C-5.307 18.212 -4.244 13.562 -2.5 8.062 C-2.262 7.283 -2.023 6.504 -1.777 5.701 C-1.194 3.798 -0.598 1.899 0 0 Z " fill="#FEFEFE" transform="translate(240,677)"/>
<path d="M0 0 C0.855 2.172 0.855 2.172 1 4 C-2.506 3.562 -5.2 2.909 -8.438 1.438 C-18.119 -2.276 -28.597 -0.566 -37.855 3.43 C-42.145 5.572 -46.269 7.925 -50.344 10.449 C-52.845 11.91 -55.304 12.961 -58 14 C-58.33 14.33 -58.66 14.66 -59 15 C-60.666 15.041 -62.334 15.043 -64 15 C-63.42 14.746 -62.84 14.492 -62.242 14.23 C-59.76 12.868 -58.134 11.302 -56.125 9.312 C-41.386 -4.043 -17.983 -10.899 0 0 Z " fill="#1E1C1F" transform="translate(640,436)"/>
<path d="M0 0 C3.3 0.33 6.6 0.66 10 1 C10 7.93 10 14.86 10 22 C2 22 2 22 -3 21 C-2.01 14.07 -1.02 7.14 0 0 Z " fill="#FEFEFE" transform="translate(194,673)"/>
<path d="M0 0 C4.29 0.33 8.58 0.66 13 1 C12.415 7.014 11.777 13.008 11 19 C7.04 18.67 3.08 18.34 -1 18 C-0.505 9.09 -0.505 9.09 0 0 Z " fill="#FEFEFE" transform="translate(181,647)"/>
<path d="M0 0 C0.99 0.33 1.98 0.66 3 1 C2.34 1.66 1.68 2.32 1 3 C0.602 4.988 0.262 6.989 0 9 C1.238 9.495 1.238 9.495 2.5 10 C8.232 12.88 12.986 17.634 15.5 23.5 C15.748 24.738 15.748 24.738 16 26 C14.68 26.33 13.36 26.66 12 27 C11.301 26.218 10.603 25.435 9.883 24.629 C8.964 23.607 8.044 22.585 7.125 21.562 C6.665 21.046 6.205 20.53 5.73 19.998 C2.44 16.349 1.234 15.103 -3.75 14.688 C-8.148 14.711 -10.459 16.424 -14 19 C-15.32 19 -16.64 19 -18 19 C-18 18.34 -18 17.68 -18 17 C-17.34 17 -16.68 17 -16 17 C-15.711 16.402 -15.423 15.804 -15.125 15.188 C-12.61 10.297 -12.61 10.297 -9.562 8.812 C-7 8 -7 8 -4 8 C-3.711 7.051 -3.423 6.102 -3.125 5.125 C-2 2 -2 2 0 0 Z " fill="#141316" transform="translate(449,221)"/>
<path d="M0 0 C2.062 0.438 2.062 0.438 4 1 C3.36 6.034 2.387 10.895 1.125 15.812 C0.862 16.854 0.862 16.854 0.593 17.916 C-0.79 23.323 -2.312 28.68 -4 34 C-4.99 33.67 -5.98 33.34 -7 33 C-6.928 32.301 -6.856 31.603 -6.781 30.883 C-6.642 29.518 -6.642 29.518 -6.5 28.125 C-6.407 27.22 -6.314 26.315 -6.219 25.383 C-5.97 23.067 -5.97 23.067 -6 21 C-7.98 21.99 -7.98 21.99 -10 23 C-9.519 17.209 -7.842 13.153 -5 8.125 C-4.631 7.45 -4.263 6.774 -3.883 6.078 C-1.197 1.197 -1.197 1.197 0 0 Z " fill="#141316" transform="translate(265,616)"/>
<path d="M0 0 C1.258 -0.021 2.516 -0.041 3.812 -0.062 C4.52 -0.074 5.228 -0.086 5.957 -0.098 C8 0 8 0 11 1 C9.68 7.27 8.36 13.54 7 20 C3.37 19.67 -0.26 19.34 -4 19 C-2.747 12.646 -1.427 6.317 0 0 Z " fill="#F3F3F3" transform="translate(245,653)"/>
<path d="M0 0 C0 1.65 0 3.3 0 5 C-23.789 17.101 -23.789 17.101 -34 21 C-34.66 20.01 -35.32 19.02 -36 18 C-28.062 12.909 -20.092 7.897 -11.812 3.375 C-10.897 2.862 -10.897 2.862 -9.963 2.338 C-6.498 0.484 -3.937 -0.4 0 0 Z " fill="#272628" transform="translate(462,363)"/>
<path d="M0 0 C1.65 0 3.3 0 5 0 C4.34 4.62 3.68 9.24 3 14 C4.65 14 6.3 14 8 14 C6.457 18.721 4.922 23.417 3 28 C2.34 28 1.68 28 1 28 C0.351 26.418 -0.294 24.834 -0.938 23.25 C-1.297 22.368 -1.657 21.487 -2.027 20.578 C-4.103 15.076 -4.915 9.941 -3.125 4.188 C-2 2 -2 2 0 0 Z " fill="#3E3E3F" transform="translate(687,335)"/>
<path d="M0 0 C1.437 -0.027 2.875 -0.046 4.312 -0.062 C5.513 -0.08 5.513 -0.08 6.738 -0.098 C9 0 9 0 12 1 C10.68 6.28 9.36 11.56 8 17 C4.37 16.67 0.74 16.34 -3 16 C-2.41 10.492 -1.433 5.351 0 0 Z " fill="#F3F3F3" transform="translate(269,657)"/>
<path d="M0 0 C3.331 1.424 5.277 3.134 7.625 5.875 C8.215 6.553 8.806 7.231 9.414 7.93 C12.295 11.691 13.264 14.243 13 19 C9.137 18.448 7.693 16.693 5 14 C0.68 11.704 -3.419 11.795 -8.188 11.938 C-15.761 12.12 -15.761 12.12 -18 11 C-18 10.34 -18 9.68 -18 9 C-15.176 8.059 -13.471 7.883 -10.551 7.902 C-9.703 7.906 -8.856 7.909 -7.982 7.912 C-7.101 7.92 -6.22 7.929 -5.312 7.938 C-3.973 7.944 -3.973 7.944 -2.607 7.951 C-0.405 7.963 1.798 7.981 4 8 C0.535 5.03 0.535 5.03 -3 2 C-2.01 1.34 -1.02 0.68 0 0 Z " fill="#141316" transform="translate(641,438)"/>
<path d="M0 0 C1.98 0 3.96 0 6 0 C5.698 11.723 2.702 23.893 -1 35 C-2.32 35 -3.64 35 -5 35 C-4.632 27.398 -2.914 20.583 -0.728 13.334 C1.424 6.64 1.424 6.64 0 0 Z " fill="#F3F3F3" transform="translate(267,615)"/>
<path d="M0 0 C1.207 0.031 1.207 0.031 2.438 0.062 C5.192 5.484 7.186 9.828 6.438 16.062 C5.777 17.053 5.118 18.043 4.438 19.062 C2.125 19.062 2.125 19.062 -0.562 18.062 C-3.449 12.488 -4.273 7.309 -3.562 1.062 C-2.562 0.062 -2.562 0.062 0 0 Z " fill="#141316" transform="translate(491.5625,284.9375)"/>
<path d="M0 0 C0.66 0 1.32 0 2 0 C2.276 6.201 1.229 11.932 0 18 C1.134 18.268 2.269 18.536 3.438 18.812 C4.613 19.204 5.789 19.596 7 20 C7.33 20.99 7.66 21.98 8 23 C4.7 23 1.4 23 -2 23 C-2.33 23.66 -2.66 24.32 -3 25 C-3.66 24.67 -4.32 24.34 -5 24 C-5.731 21.686 -6.401 19.352 -7 17 C-6.01 17 -5.02 17 -4 17 C-4.023 16.42 -4.046 15.84 -4.07 15.242 C-4.182 10.411 -3.979 6.508 -2 2 C-1.34 1.34 -0.68 0.68 0 0 Z " fill="#141316" transform="translate(196,650)"/>
<path d="M0 0 C2 0.188 2 0.188 4 1 C7.572 6.358 7.122 11.766 7 18 C5.35 18.33 3.7 18.66 2 19 C-0.629 14.657 -2.15 12.101 -2.188 7 C-2.202 6.113 -2.216 5.226 -2.23 4.312 C-2 2 -2 2 0 0 Z " fill="#141316" transform="translate(519,281)"/>
<path d="M0 0 C2.392 3.33 2.001 6.067 1.364 9.992 C1.223 10.737 1.082 11.482 0.938 12.25 C0.798 13.01 0.658 13.77 0.513 14.552 C-0.64 20.266 -2.105 24.535 -6 29 C-7.32 29 -8.64 29 -10 29 C-10.33 28.34 -10.66 27.68 -11 27 C-10.285 25.595 -9.5 24.226 -8.688 22.875 C-5.024 15.956 -4.638 8.677 -4 1 C-3.67 1 -3.34 1 -3 1 C-2.67 2.65 -2.34 4.3 -2 6 C-1.34 6 -0.68 6 0 6 C0 4.02 0 2.04 0 0 Z " fill="#1E1C1F" transform="translate(525,361)"/>
<path d="M0 0 C1.32 0 2.64 0 4 0 C4.832 5.039 5.108 9.813 5.062 14.938 C5.058 15.621 5.053 16.305 5.049 17.01 C5.037 18.673 5.019 20.337 5 22 C2.36 21.01 -0.28 20.02 -3 19 C-2.542 12.449 -1.79 6.325 0 0 Z " fill="#F3F3F3" transform="translate(199,649)"/>
<path d="M0 0 C7.685 5.094 7.685 5.094 9 8.875 C9 9.576 9 10.277 9 11 C2.933 11.77 -2.885 12.097 -9 12 C-7.556 8.761 -5.742 6.38 -3.375 3.75 C-2.743 3.044 -2.112 2.337 -1.461 1.609 C-0.979 1.078 -0.497 0.547 0 0 Z " fill="#F3F3F3" transform="translate(651,466)"/>
<path d="M0 0 C-0.75 1.945 -0.75 1.945 -2 4 C-3.812 4.617 -3.812 4.617 -6 4.875 C-11.056 5.76 -14.675 7.972 -18.934 10.758 C-21 12 -21 12 -23 12 C-23.438 9.875 -23.438 9.875 -23 7 C-16.708 -0.089 -9.216 -3.072 0 0 Z " fill="#0B0B0B" transform="translate(498,268)"/>
<path d="M0 0 C0.33 0 0.66 0 1 0 C2.194 24.776 2.194 24.776 2 36 C1.67 36 1.34 36 1 36 C1 48.54 1 61.08 1 74 C0.67 74 0.34 74 0 74 C-0.33 77.3 -0.66 80.6 -1 84 C-1.33 84 -1.66 84 -2 84 C-2.159 66.363 -1.694 48.766 -1.073 31.143 C-0.949 27.616 -0.83 24.088 -0.711 20.561 C-0.478 13.707 -0.241 6.853 0 0 Z " fill="#3E3E3F" transform="translate(423,641)"/>
<path d="M0 0 C1.32 0 2.64 0 4 0 C4.482 1.249 4.96 2.499 5.438 3.75 C5.838 4.794 5.838 4.794 6.246 5.859 C7.566 9.606 8.121 12.768 8.062 16.75 C8.053 17.549 8.044 18.348 8.035 19.172 C8.024 19.775 8.012 20.378 8 21 C6.68 21 5.36 21 4 21 C0.422 14.326 -0.272 7.471 0 0 Z " fill="#272628" transform="translate(662,280)"/>
<path d="M0 0 C0.99 0.33 1.98 0.66 3 1 C2.611 6.028 0.375 7.987 -3.312 11.25 C-4.761 12.557 -4.761 12.557 -6.238 13.891 C-8.682 15.757 -10.009 16.631 -13 17 C-13.828 15.352 -13.828 15.352 -14 13 C-12.306 10.903 -10.707 9.191 -8.75 7.375 C-8.246 6.885 -7.742 6.395 -7.223 5.891 C-4.915 3.674 -2.668 1.779 0 0 Z " fill="#272628" transform="translate(748,296)"/>
<path d="M0 0 C-0.199 2.324 -0.199 2.324 -1 5 C-3.145 6.582 -3.145 6.582 -5.812 7.812 C-6.685 8.231 -7.558 8.65 -8.457 9.082 C-11 10 -11 10 -15 10 C-15.33 8.35 -15.66 6.7 -16 5 C-10.548 0.327 -7.181 -1.67 0 0 Z " fill="#141316" transform="translate(522,266)"/>
<path d="M0 0 C3.875 0.461 6.564 2.531 9.688 4.75 C10.661 5.425 11.634 6.101 12.637 6.797 C15.263 9.245 15.736 10.482 16 14 C11.41 13.489 8.47 12.39 4.688 9.75 C3.825 9.167 2.963 8.585 2.074 7.984 C-0.352 5.664 -0.794 4.313 -1 1 C-0.67 0.67 -0.34 0.34 0 0 Z " fill="#1E1C1F" transform="translate(626,302)"/>
<path d="M0 0 C5.66 2.389 8.618 7.417 11.438 12.688 C12.108 15.443 11.773 17.296 11 20 C10.01 20 9.02 20 8 20 C7.625 19.203 7.25 18.407 6.863 17.586 C4.063 11.787 1.432 6.693 -3 2 C-2.01 1.34 -1.02 0.68 0 0 Z " fill="#141316" transform="translate(484,212)"/>
<path d="M0 0 C0 0.99 0 1.98 0 3 C-0.804 3.474 -1.609 3.949 -2.438 4.438 C-5.095 5.695 -5.095 5.695 -5.656 7.77 C-6.046 10.298 -6.096 12.692 -6.062 15.25 C-6.049 16.588 -6.049 16.588 -6.035 17.953 C-6.024 18.629 -6.012 19.304 -6 20 C-6.66 19.67 -7.32 19.34 -8 19 C-8.66 19.99 -9.32 20.98 -10 22 C-11.794 16.618 -12.101 10.083 -10.176 4.691 C-7.244 -0.552 -5.662 -1.341 0 0 Z " fill="#1E1C1F" transform="translate(690,332)"/>
<path d="M0 0 C0.99 0.33 1.98 0.66 3 1 C2.632 7.908 1.761 13.638 -1 20 C-2.32 20 -3.64 20 -5 20 C-5.359 13.542 -4.44 8.023 -2 2 C-1.34 1.34 -0.68 0.68 0 0 Z " fill="#272628" transform="translate(704,278)"/>
<path d="M0 0 C4.706 0.706 4.706 0.706 6 2 C5.663 7.06 5.3 10.938 2 15 C1.01 15 0.02 15 -1 15 C-2.682 15.626 -4.352 16.288 -6 17 C-4.177 12.312 -4.177 12.312 -2.938 10.125 C-1.634 7.169 -1.421 4.187 -1 1 C-0.67 0.67 -0.34 0.34 0 0 Z " fill="#141316" transform="translate(725,345)"/>
<path d="M0 0 C1.675 0.286 3.344 0.618 5 1 C4.341 5.348 2.787 8.996 1 13 C0.327 14.664 -0.342 16.33 -1 18 C-2.32 18 -3.64 18 -5 18 C-5.557 11.593 -3.749 6.763 -1 1 C-0.67 0.67 -0.34 0.34 0 0 Z " fill="#141316" transform="translate(707,345)"/>
<path d="M0 0 C1.32 0 2.64 0 4 0 C1.678 17.43 1.678 17.43 -1 23 C-1.99 23.33 -2.98 23.66 -4 24 C-4.212 18.111 -3.553 13.167 -2 7.5 C-1.809 6.773 -1.618 6.046 -1.422 5.297 C-0.957 3.529 -0.48 1.764 0 0 Z " fill="#E9E9E9" transform="translate(255,679)"/>
<path d="M0 0 C2.972 1.125 5.334 2.223 8 4 C10.216 4.316 10.216 4.316 12.562 4.25 C13.348 4.255 14.133 4.26 14.941 4.266 C17.223 4.184 17.223 4.184 19 2 C19.99 2 20.98 2 22 2 C21.635 4.644 21.248 5.772 19.254 7.605 C15.352 10.02 11.431 9.733 7 9 C3.984 7.655 2.449 6.343 0 4 C0 2.68 0 1.36 0 0 Z " fill="#141316" transform="translate(494,321)"/>
<path d="M0 0 C1.772 0.06 3.543 0.149 5.312 0.25 C6.792 0.32 6.792 0.32 8.301 0.391 C11 1 11 1 12.844 2.781 C14.682 6.308 14.196 9.07 14 13 C12.062 12.188 12.062 12.188 10 11 C9.67 10.01 9.34 9.02 9 8 C6.36 8 3.72 8 1 8 C1.495 7.546 1.99 7.092 2.5 6.625 C4.226 5.124 4.226 5.124 4 3 C2.68 2.67 1.36 2.34 0 2 C0 1.34 0 0.68 0 0 Z " fill="#272628" transform="translate(180,670)"/>
<path d="M0 0 C1.65 0 3.3 0 5 0 C3.961 6.111 2.843 12.077 1 18 C-0.65 18 -2.3 18 -4 18 C-3.523 15.562 -3.044 13.125 -2.562 10.688 C-2.428 9.997 -2.293 9.307 -2.154 8.596 C-1.572 5.657 -0.948 2.845 0 0 Z " fill="#E9E9E9" transform="translate(260,655)"/>
<path d="M0 0 C0.33 0 0.66 0 1 0 C1 2.31 1 4.62 1 7 C1.99 7 2.98 7 4 7 C4 6.34 4 5.68 4 5 C4.66 5 5.32 5 6 5 C6 4.34 6 3.68 6 3 C11.445 2.505 11.445 2.505 17 2 C16.34 2.66 15.68 3.32 15 4 C15 4.99 15 5.98 15 7 C11.7 6.67 8.4 6.34 5 6 C5 6.66 5 7.32 5 8 C5.959 8.155 5.959 8.155 6.938 8.312 C7.618 8.539 8.299 8.766 9 9 C9.33 9.99 9.66 10.98 10 12 C3.375 13.25 3.375 13.25 0 11 C-0.293 8.398 -0.293 8.398 -0.188 5.375 C-0.16 4.372 -0.133 3.369 -0.105 2.336 C-0.071 1.565 -0.036 0.794 0 0 Z " fill="#272628" transform="translate(175,664)"/>
<path d="M0 0 C0.33 0 0.66 0 1 0 C0.529 10.035 -0.098 20.052 -0.938 30.062 C-1.012 31.032 -1.087 32.002 -1.164 33 C-1.242 33.899 -1.321 34.797 -1.402 35.723 C-1.503 36.925 -1.503 36.925 -1.605 38.153 C-1.736 38.762 -1.866 39.372 -2 40 C-2.99 40.495 -2.99 40.495 -4 41 C-4.216 32.003 -3.569 23.249 -2.562 14.312 C-2.428 13.04 -2.293 11.767 -2.154 10.455 C-1.133 1.133 -1.133 1.133 0 0 Z " fill="#272628" transform="translate(150,603)"/>
<path d="M0 0 C2.045 1.671 2.92 2.566 3.404 5.205 C3.436 7.95 3.458 10.692 3.438 13.438 C3.457 14.392 3.477 15.347 3.498 16.33 C3.493 23.353 3.493 23.353 0.973 26.66 C0.322 27.102 -0.329 27.544 -1 28 C-1.129 18.588 -0.798 9.379 0 0 Z " fill="#0B0B0B" transform="translate(168,654)"/>
<path d="M0 0 C1.875 0.75 1.875 0.75 2.875 1.75 C3.25 5.062 3.25 5.062 2.875 8.75 C0.562 11.25 0.562 11.25 -2.125 12.75 C-3.115 12.42 -4.105 12.09 -5.125 11.75 C-5.206 10.313 -5.264 8.876 -5.312 7.438 C-5.347 6.637 -5.382 5.836 -5.418 5.012 C-5.125 2.75 -5.125 2.75 -3.746 0.941 C-2.125 -0.25 -2.125 -0.25 0 0 Z " fill="#1E1C1F" transform="translate(719.125,344.25)"/>
<path d="M0 0 C0.66 0.66 1.32 1.32 2 2 C-0.373 2.818 -2.748 3.63 -5.125 4.438 C-5.79 4.668 -6.455 4.898 -7.141 5.135 C-11.079 6.467 -14.862 7.439 -19 8 C-19.33 6.68 -19.66 5.36 -20 4 C-17.609 3.131 -15.213 2.279 -12.812 1.438 C-12.139 1.191 -11.465 0.944 -10.771 0.689 C-6.823 -0.678 -3.993 -1.453 0 0 Z " fill="#1E1C1F" transform="translate(625,449)"/>
<path d="M0 0 C0.846 0.495 1.691 0.99 2.562 1.5 C2.232 2.16 1.903 2.82 1.562 3.5 C0.333 3.252 0.333 3.252 -0.922 3 C-4.896 2.435 -8.684 2.427 -12.688 2.5 C-20.169 2.634 -20.169 2.634 -22.438 1.5 C-22.438 0.84 -22.438 0.18 -22.438 -0.5 C-15.972 -2.655 -6.34 -2.771 0 0 Z " fill="#141316" transform="translate(645.4375,447.5)"/>
<path d="M0 0 C0.33 0.66 0.66 1.32 1 2 C1.66 2 2.32 2 3 2 C3 9.92 3 17.84 3 26 C2.01 26.33 1.02 26.66 0 27 C0 18.09 0 9.18 0 0 Z " fill="#0B0B0B" transform="translate(205,668)"/>
<path d="M0 0 C-0.66 0.66 -1.32 1.32 -2 2 C-2.33 2.99 -2.66 3.98 -3 5 C-4.961 5.949 -4.961 5.949 -7.375 6.688 C-8.166 6.939 -8.958 7.19 -9.773 7.449 C-12 8 -12 8 -15 8 C-15 4 -15 4 -13.438 2.375 C-9.179 -0.027 -4.759 -1.904 0 0 Z " fill="#1E1C1F" transform="translate(499,202)"/>
<path d="M0 0 C0.33 0.66 0.66 1.32 1 2 C1.905 1.948 1.905 1.948 2.828 1.895 C9.437 1.671 9.437 1.671 12.562 3.5 C13.037 3.995 13.511 4.49 14 5 C13.67 6.32 13.34 7.64 13 9 C9.7 8.01 6.4 7.02 3 6 C3 5.34 3 4.68 3 4 C2.423 4.144 1.845 4.289 1.25 4.438 C-0.833 4.958 -2.917 5.479 -5 6 C-4.34 5.67 -3.68 5.34 -3 5 C-3 4.01 -3 3.02 -3 2 C-2.01 2 -1.02 2 0 2 C0 1.34 0 0.68 0 0 Z " fill="#272628" transform="translate(654,455)"/>
<path d="M0 0 C0.496 0.387 0.993 0.773 1.504 1.172 C10.354 8.04 10.354 8.04 21 11 C20.01 12.485 20.01 12.485 19 14 C12.531 14 9.086 11.175 4.137 7.203 C1.889 4.885 0.966 3.053 0 0 Z " fill="#E0E0E1" transform="translate(482,358)"/>
<path d="M0 0 C1.98 0.495 1.98 0.495 4 1 C4 7.93 4 14.86 4 22 C3.67 22 3.34 22 3 22 C2.67 17.71 2.34 13.42 2 9 C1.67 9 1.34 9 1 9 C0.67 12.3 0.34 15.6 0 19 C-0.33 19 -0.66 19 -1 19 C-1.027 16.396 -1.047 13.792 -1.062 11.188 C-1.071 10.45 -1.079 9.712 -1.088 8.951 C-1.103 5.701 -1.035 3.106 0 0 Z " fill="#323034" transform="translate(168,649)"/>
<path d="M0 0 C0.33 0 0.66 0 1 0 C2.194 24.776 2.194 24.776 2 36 C1.67 36 1.34 36 1 36 C0.67 37.98 0.34 39.96 0 42 C-0.33 42 -0.66 42 -1 42 C-1.191 27.981 -0.603 14.004 0 0 Z " fill="#525355" transform="translate(423,641)"/>
<path d="M0 0 C1.32 0.66 2.64 1.32 4 2 C4 7.28 4 12.56 4 18 C3.01 17.67 2.02 17.34 1 17 C0.939 16.336 0.879 15.672 0.816 14.988 C0.3 9.465 0.3 9.465 -0.625 4 C-1 2 -1 2 0 0 Z " fill="#0B0B0B" transform="translate(178,624)"/>
<path d="M0 0 C1.32 0.66 2.64 1.32 4 2 C4 5.96 4 9.92 4 14 C2.35 14 0.7 14 -1 14 C-0.67 9.38 -0.34 4.76 0 0 Z " fill="#F3F3F3" transform="translate(174,627)"/>
<path d="M0 0 C0.99 0.66 1.98 1.32 3 2 C2.718 3.793 2.424 5.585 2.125 7.375 C1.963 8.373 1.8 9.37 1.633 10.398 C1 13 1 13 -1 15 C-1.66 14.67 -2.32 14.34 -3 14 C-2.885 12.416 -2.758 10.833 -2.625 9.25 C-2.555 8.368 -2.486 7.487 -2.414 6.578 C-2.001 4.009 -1.288 2.242 0 0 Z " fill="#141316" transform="translate(261,635)"/>
<path d="M0 0 C0.66 0.33 1.32 0.66 2 1 C1.268 3.131 0.513 5.255 -0.25 7.375 C-0.876 9.15 -0.876 9.15 -1.516 10.961 C-3 14 -3 14 -5.172 15.414 C-5.775 15.607 -6.378 15.801 -7 16 C-6.53 10.364 -5.093 5.786 -2 1 C-1.34 0.67 -0.68 0.34 0 0 Z " fill="#141316" transform="translate(262,623)"/>
<path d="M0 0 C1.32 0 2.64 0 4 0 C4.082 4.161 3.982 7.947 3 12 C1.68 12.33 0.36 12.66 -1 13 C-0.67 8.71 -0.34 4.42 0 0 Z " fill="#141316" transform="translate(272,619)"/>
<path d="M0 0 C0.731 0.244 1.462 0.487 2.215 0.738 C-0.612 3.722 -2.977 6.141 -6.785 7.738 C-7.425 8.11 -8.064 8.481 -8.723 8.863 C-11.196 9.913 -13.125 9.886 -15.785 9.738 C-14.932 9.373 -14.932 9.373 -14.062 9 C-10.535 7.046 -7.948 4.147 -5.102 1.32 C-2.785 -0.262 -2.785 -0.262 0 0 Z " fill="#1E1C1F" transform="translate(591.78515625,441.26171875)"/>
<path d="M0 0 C0.99 0.33 1.98 0.66 3 1 C2.886 2.605 2.758 4.209 2.625 5.812 C2.555 6.706 2.486 7.599 2.414 8.52 C2 11 2 11 0 14 C0 12.68 0 11.36 0 10 C-0.66 10 -1.32 10 -2 10 C-2.195 3.945 -2.195 3.945 -2 2 C-1.34 1.34 -0.68 0.68 0 0 Z " fill="#141316" transform="translate(249,689)"/>
<path d="M0 0 C0.33 0 0.66 0 1 0 C1.339 3.833 1.67 7.666 2 11.5 C2.143 13.116 2.143 13.116 2.289 14.766 C2.782 20.536 3.112 26.209 3 32 C2.67 32 2.34 32 2 32 C2 29.69 2 27.38 2 25 C1.34 25 0.68 25 0 25 C0.012 24.241 0.023 23.481 0.035 22.699 C0.044 21.705 0.053 20.711 0.062 19.688 C0.08 18.208 0.08 18.208 0.098 16.699 C0.123 13.9 0.123 13.9 -1 11 C-0.915 9.1 -0.763 7.203 -0.562 5.312 C-0.461 4.319 -0.359 3.325 -0.254 2.301 C-0.17 1.542 -0.086 0.782 0 0 Z " fill="#525355" transform="translate(591,774)"/>
<path d="M0 0 C5.28 0 10.56 0 16 0 C15.01 0.495 15.01 0.495 14 1 C14 1.66 14 2.32 14 3 C9.38 3 4.76 3 0 3 C0 2.01 0 1.02 0 0 Z " fill="#0B0B0B" transform="translate(150,641)"/>
<path d="M0 0 C1.207 0.031 1.207 0.031 2.438 0.062 C3.062 2.375 3.062 2.375 3.438 5.062 C2.447 6.548 2.447 6.548 1.438 8.062 C-0.5 7.375 -0.5 7.375 -2.562 6.062 C-3.375 3.5 -3.375 3.5 -3.562 1.062 C-2.562 0.062 -2.562 0.062 0 0 Z " fill="#141316" transform="translate(517.5625,441.9375)"/>
<path d="M0 0 C-3.435 3.172 -6.153 3.458 -10.75 3.688 C-11.92 3.753 -13.091 3.819 -14.297 3.887 C-15.189 3.924 -16.081 3.961 -17 4 C-17.33 3.34 -17.66 2.68 -18 2 C-12.121 -0.613 -6.293 -0.183 0 0 Z " fill="#141316" transform="translate(648,459)"/>
<path d="M0 0 C0.33 0.66 0.66 1.32 1 2 C1.66 2 2.32 2 3 2 C2.67 5.3 2.34 8.6 2 12 C0.68 11.67 -0.64 11.34 -2 11 C-2.286 3.571 -2.286 3.571 0 0 Z " fill="#141316" transform="translate(250,614)"/>
<path d="M0 0 C1.675 0.286 3.344 0.618 5 1 C5.625 2.875 5.625 2.875 6 5 C5.34 5.66 4.68 6.32 4 7 C1.875 6.625 1.875 6.625 0 6 C-0.382 4.344 -0.714 2.675 -1 1 C-0.67 0.67 -0.34 0.34 0 0 Z " fill="#1E1C1F" transform="translate(509,397)"/>
<path d="M0 0 C1.312 3.937 0.339 5.779 -0.938 9.688 C-1.318 10.867 -1.698 12.046 -2.09 13.262 C-2.54 14.617 -2.54 14.617 -3 16 C-4.32 16 -5.64 16 -7 16 C-5.568 12.341 -4.011 8.76 -2.375 5.188 C-1.929 4.212 -1.483 3.236 -1.023 2.23 C-0.517 1.126 -0.517 1.126 0 0 Z " fill="#CDCDCE" transform="translate(260,633)"/>
<path d="M0 0 C2.475 0.99 2.475 0.99 5 2 C5.66 1.34 6.32 0.68 7 0 C7.33 0.99 7.66 1.98 8 3 C3.545 5.97 3.545 5.97 -1 9 C-1.098 2.848 -1.098 2.848 -1 1 C-0.67 0.67 -0.34 0.34 0 0 Z " fill="#525355" transform="translate(514,447)"/>
<path d="M0 0 C3.96 0 7.92 0 12 0 C11.67 0.99 11.34 1.98 11 3 C7.04 3 3.08 3 -1 3 C-0.67 2.01 -0.34 1.02 0 0 Z " fill="#0B0B0B" transform="translate(153,621)"/>
<path d="M0 0 C1.437 -0.054 2.875 -0.093 4.312 -0.125 C5.113 -0.148 5.914 -0.171 6.738 -0.195 C9 0 9 0 12 2 C7.673 4.229 4.716 3.925 0 3 C0 2.01 0 1.02 0 0 Z " fill="#141316" transform="translate(271,653)"/>
<path d="M0 0 C0.66 0 1.32 0 2 0 C2.33 0.66 2.66 1.32 3 2 C4.895 2.465 4.895 2.465 7.062 2.625 C8.362 2.749 9.661 2.872 11 3 C11 3.33 11 3.66 11 4 C9.02 4 7.04 4 5 4 C5 4.66 5 5.32 5 6 C4.34 6 3.68 6 3 6 C3 6.66 3 7.32 3 8 C2.01 8 1.02 8 0 8 C0 5.36 0 2.72 0 0 Z " fill="#141316" transform="translate(176,663)"/>
<path d="M0 0 C4.833 -0.083 9.237 0.047 14 1 C14 1.33 14 1.66 14 2 C10.37 2.33 6.74 2.66 3 3 C2.34 5.31 1.68 7.62 1 10 C0.67 10 0.34 10 0 10 C0 6.7 0 3.4 0 0 Z " fill="#0B0B0B" transform="translate(146,589)"/>
<path d="M0 0 C0 0.33 0 0.66 0 1 C-2.31 1.33 -4.62 1.66 -7 2 C-5.35 2.33 -3.7 2.66 -2 3 C-2 3.33 -2 3.66 -2 4 C-6.833 4.083 -11.237 3.953 -16 3 C-16 2.34 -16 1.68 -16 1 C-10.593 0.228 -5.461 -0.098 0 0 Z " fill="#3E3E3F" transform="translate(345,937)"/>
<path d="M0 0 C1.32 0.99 2.64 1.98 4 3 C3.01 5.31 2.02 7.62 1 10 C-0.32 9.34 -1.64 8.68 -3 8 C-1.125 2.25 -1.125 2.25 0 0 Z " fill="#272628" transform="translate(254,636)"/>
<path d="M0 0 C0.33 0 0.66 0 1 0 C1.794 7.218 2.079 13.808 1 21 C-1.117 17.825 -1.229 17.333 -0.977 13.77 C-0.925 12.967 -0.873 12.165 -0.82 11.338 C-0.756 10.505 -0.691 9.671 -0.625 8.812 C-0.568 7.968 -0.512 7.123 -0.453 6.252 C-0.312 4.167 -0.157 2.084 0 0 Z " fill="#323034" transform="translate(145,590)"/>
<path d="M0 0 C0 3.3 0 6.6 0 10 C-0.33 8.68 -0.66 7.36 -1 6 C-2.98 6.99 -2.98 6.99 -5 8 C-5.188 5.125 -5.188 5.125 -5 2 C-2 0 -2 0 0 0 Z " fill="#272628" transform="translate(177,600)"/>
<path d="M0 0 C0 3.396 -0.522 4.066 -2.5 6.688 C-2.964 7.31 -3.428 7.933 -3.906 8.574 C-4.267 9.045 -4.628 9.515 -5 10 C-5.33 9.34 -5.66 8.68 -6 8 C-6.66 7.67 -7.32 7.34 -8 7 C-6.865 3.709 -6.007 3.004 -2.875 1.25 C-1.926 0.837 -0.977 0.425 0 0 Z " fill="#141316" transform="translate(646,469)"/>
<path d="M0 0 C0 0.66 0 1.32 0 2 C-0.99 2.66 -1.98 3.32 -3 4 C-3 4.99 -3 5.98 -3 7 C-5.97 6.505 -5.97 6.505 -9 6 C-8.812 4.125 -8.812 4.125 -8 2 C-5.109 0.478 -3.282 0 0 0 Z " fill="#272628" transform="translate(553,473)"/>
<path d="M0 0 C0.33 0 0.66 0 1 0 C0.67 5.94 0.34 11.88 0 18 C-0.33 18 -0.66 18 -1 18 C-1.876 11.457 -2.355 6.234 0 0 Z " fill="#3E3E3F" transform="translate(150,603)"/>
<path d="M0 0 C-1.65 0.66 -3.3 1.32 -5 2 C-4.34 2.66 -3.68 3.32 -3 4 C-4.65 4.33 -6.3 4.66 -8 5 C-8 4.34 -8 3.68 -8 3 C-8.928 3.309 -8.928 3.309 -9.875 3.625 C-10.576 3.749 -11.278 3.873 -12 4 C-12.66 3.34 -13.32 2.68 -14 2 C-12.421 1.467 -10.836 0.949 -9.25 0.438 C-8.368 0.147 -7.487 -0.143 -6.578 -0.441 C-3.922 -1.017 -2.53 -0.892 0 0 Z " fill="#3E3E3F" transform="translate(636,460)"/>
<path d="M0 0 C3.367 1.393 4.986 2.979 7 6 C5.375 6.812 5.375 6.812 3 7 C0.754 5.532 -1.024 3.841 -3 2 C-2.01 1.34 -1.02 0.68 0 0 Z " fill="#141316" transform="translate(641,438)"/>
<path d="M0 0 C0.66 0.33 1.32 0.66 2 1 C1.01 2.485 1.01 2.485 0 4 C0 4.66 0 5.32 0 6 C-1.98 6.66 -3.96 7.32 -6 8 C-6.66 7.01 -7.32 6.02 -8 5 C-6.715 4.136 -5.422 3.284 -4.125 2.438 C-3.046 1.724 -3.046 1.724 -1.945 0.996 C-1.303 0.667 -0.661 0.339 0 0 Z " fill="#272628" transform="translate(434,376)"/>
<path d="M0 0 C0.33 0 0.66 0 1 0 C1.33 1.65 1.66 3.3 2 5 C2.99 4.67 3.98 4.34 5 4 C4.67 5.98 4.34 7.96 4 10 C2.35 10 0.7 10 -1 10 C-0.67 6.7 -0.34 3.4 0 0 Z " fill="#49484C" transform="translate(216,685)"/>
<path d="M0 0 C0.99 0 1.98 0 3 0 C2.67 2.97 2.34 5.94 2 9 C1.01 9 0.02 9 -1 9 C-1.125 2.25 -1.125 2.25 0 0 Z " fill="#0B0B0B" transform="translate(190,679)"/>
<path d="M0 0 C-0.33 2.97 -0.66 5.94 -1 9 C-1.99 8.67 -2.98 8.34 -4 8 C-4 5.69 -4 3.38 -4 1 C-2 0 -2 0 0 0 Z " fill="#0B0B0B" transform="translate(203,616)"/>
<path d="M0 0 C6.93 0.495 6.93 0.495 14 1 C14 1.33 14 1.66 14 2 C4.595 2.495 4.595 2.495 -5 3 C-5 2.67 -5 2.34 -5 2 C-3.35 2 -1.7 2 0 2 C0 1.34 0 0.68 0 0 Z " fill="#5C5B5D" transform="translate(639,482)"/>
<path d="M0 0 C1.263 0.12 2.527 0.24 3.828 0.363 C5.274 0.524 5.274 0.524 6.75 0.688 C6.75 1.017 6.75 1.348 6.75 1.688 C0.81 2.017 -5.13 2.348 -11.25 2.688 C-6.593 -0.805 -5.56 -0.566 0 0 Z " fill="#525355" transform="translate(690.25,478.3125)"/>
<path d="M0 0 C3.3 0.33 6.6 0.66 10 1 C10 1.99 10 2.98 10 4 C6.7 3.34 3.4 2.68 0 2 C0 1.34 0 0.68 0 0 Z " fill="#E9E9E9" transform="translate(180,670)"/>
<path d="M0 0 C0 0.33 0 0.66 0 1 C-0.742 1.144 -1.485 1.289 -2.25 1.438 C-4.863 1.925 -4.863 1.925 -6.812 2.562 C-9.579 3.116 -11.95 2.863 -14.75 2.562 C-16.227 2.41 -16.227 2.41 -17.734 2.254 C-18.482 2.17 -19.23 2.086 -20 2 C-20 1.67 -20 1.34 -20 1 C-13.312 0.376 -6.719 -0.129 0 0 Z " fill="#525355" transform="translate(637,545)"/>
<path d="M0 0 C2.64 0.33 5.28 0.66 8 1 C6.68 1.33 5.36 1.66 4 2 C4 4.31 4 6.62 4 9 C1.497 6.062 0.531 3.821 0 0 Z " fill="#323034" transform="translate(273,615)"/>
<path d="M0 0 C0 0.33 0 0.66 0 1 C-0.699 1.049 -1.397 1.098 -2.117 1.148 C-3.027 1.223 -3.937 1.298 -4.875 1.375 C-5.78 1.445 -6.685 1.514 -7.617 1.586 C-10.179 1.796 -10.179 1.796 -12 4 C-12 3.34 -12 2.68 -12 2 C-14.64 2 -17.28 2 -20 2 C-20 1.67 -20 1.34 -20 1 C-13.344 -0.238 -6.753 -0.091 0 0 Z " fill="#0B0B0B" transform="translate(610,482)"/>
<path d="M0 0 C0.66 0.33 1.32 0.66 2 1 C1.237 1.701 0.474 2.403 -0.312 3.125 C-2.966 5.964 -4.44 8.469 -6 12 C-6.66 12 -7.32 12 -8 12 C-6.65 6.33 -4.184 3.82 0 0 Z " fill="#323034" transform="translate(451,217)"/>
<path d="M0 0 C0 0.66 0 1.32 0 2 C-3.823 3.423 -6.913 4.24 -11 4 C-11 3.34 -11 2.68 -11 2 C-3.375 0 -3.375 0 0 0 Z " fill="#272628" transform="translate(226,925)"/>
<path d="M0 0 C0.99 0.33 1.98 0.66 3 1 C3.33 3.31 3.66 5.62 4 8 C3.01 7.67 2.02 7.34 1 7 C0.01 7.495 0.01 7.495 -1 8 C-0.67 5.36 -0.34 2.72 0 0 Z " fill="#141316" transform="translate(218,677)"/>
<path d="M0 0 C-0.99 0 -1.98 0 -3 0 C-3 1.32 -3 2.64 -3 4 C-4.65 4.33 -6.3 4.66 -8 5 C-8 4.01 -8 3.02 -8 2 C-8.66 1.67 -9.32 1.34 -10 1 C-3.714 -1.429 -3.714 -1.429 0 0 Z " fill="#272628" transform="translate(613,433)"/>
<path d="M0 0 C0.99 0.33 1.98 0.66 3 1 C1.02 2.98 -0.96 4.96 -3 7 C-3.99 6.67 -4.98 6.34 -6 6 C-4.02 4.02 -2.04 2.04 0 0 Z " fill="#1E1C1F" transform="translate(741,302)"/>
<path d="M0 0 C1.32 0 2.64 0 4 0 C4 2.31 4 4.62 4 7 C2.68 6.34 1.36 5.68 0 5 C0 3.35 0 1.7 0 0 Z " fill="#141316" transform="translate(272,619)"/>
<path d="M0 0 C5.192 -0.212 9.127 0.409 14 2 C14 2.33 14 2.66 14 3 C8.78 3.18 4.927 2.971 0 1 C0 0.67 0 0.34 0 0 Z " fill="#272628" transform="translate(152,594)"/>
<path d="M0 0 C-0.33 0.99 -0.66 1.98 -1 3 C-5.455 3.495 -5.455 3.495 -10 4 C-9.34 3.67 -8.68 3.34 -8 3 C-8 2.34 -8 1.68 -8 1 C-5.072 0.024 -3.044 -0.082 0 0 Z " fill="#0B0B0B" transform="translate(618,432)"/>
<path d="M0 0 C2.97 0.33 5.94 0.66 9 1 C9 1.33 9 1.66 9 2 C4.237 2.953 -0.167 3.083 -5 3 C-5 2.67 -5 2.34 -5 2 C-3.35 2 -1.7 2 0 2 C0 1.34 0 0.68 0 0 Z " fill="#525355" transform="translate(679,546)"/>
<path d="M0 0 C0.99 0.33 1.98 0.66 3 1 C2.67 3.31 2.34 5.62 2 8 C1.01 7.34 0.02 6.68 -1 6 C-0.67 4.02 -0.34 2.04 0 0 Z " fill="#0B0B0B" transform="translate(255,660)"/>
<path d="M0 0 C3.938 4.308 3.938 4.308 4.25 7.812 C4.167 8.534 4.085 9.256 4 10 C3.67 9.34 3.34 8.68 3 8 C2.34 8 1.68 8 1 8 C-0.354 5.291 -0.065 2.991 0 0 Z " fill="#1E1C1F" transform="translate(171,612)"/>
<path d="M0 0 C2.6 3.9 2.151 7.474 2 12 C1.67 12 1.34 12 1 12 C1 10.35 1 8.7 1 7 C0.34 7 -0.32 7 -1 7 C-0.67 4.69 -0.34 2.38 0 0 Z " fill="#3E3E3F" transform="translate(588,747)"/>
<path d="M0 0 C0.66 0 1.32 0 2 0 C1.67 1.98 1.34 3.96 1 6 C0.01 5.67 -0.98 5.34 -2 5 C-1.125 1.125 -1.125 1.125 0 0 Z " fill="#141316" transform="translate(234,690)"/>
<path d="M0 0 C0.66 0.33 1.32 0.66 2 1 C2 1.99 2 2.98 2 4 C1.01 4 0.02 4 -1 4 C-0.67 2.68 -0.34 1.36 0 0 Z M-3 2 C-2.34 2.99 -1.68 3.98 -1 5 C-1.99 6.32 -2.98 7.64 -4 9 C-3.67 6.69 -3.34 4.38 -3 2 Z " fill="#272628" transform="translate(235,686)"/>
<path d="M0 0 C1.485 0.99 1.485 0.99 3 2 C2.67 3.65 2.34 5.3 2 7 C1.01 6.67 0.02 6.34 -1 6 C-1.043 4.334 -1.041 2.666 -1 1 C-0.67 0.67 -0.34 0.34 0 0 Z " fill="#141316" transform="translate(261,635)"/>
<path d="M0 0 C2.31 0.33 4.62 0.66 7 1 C3.1 3.6 -0.474 3.151 -5 3 C-5 2.67 -5 2.34 -5 2 C-3.35 2 -1.7 2 0 2 C0 1.34 0 0.68 0 0 Z " fill="#3E3E3F" transform="translate(656,548)"/>
<path d="M0 0 C-0.33 0.99 -0.66 1.98 -1 3 C-4 4 -4 4 -7 3 C-7 2.34 -7 1.68 -7 1 C-4.537 -0.231 -2.72 -0.072 0 0 Z " fill="#141316" transform="translate(598,439)"/>
<path d="M0 0 C2.31 0 4.62 0 7 0 C6.01 1.485 6.01 1.485 5 3 C2.375 3.188 2.375 3.188 0 3 C0 2.01 0 1.02 0 0 Z " fill="#E0E0E1" transform="translate(496,369)"/>
<path d="M0 0 C0.99 0.99 1.98 1.98 3 3 C3.66 2.34 4.32 1.68 5 1 C4.67 2.98 4.34 4.96 4 7 C2.68 6.67 1.36 6.34 0 6 C0 4.02 0 2.04 0 0 Z " fill="#3E3E3F" transform="translate(188,684)"/>
<path d="M0 0 C1.32 0.66 2.64 1.32 4 2 C4 2.99 4 3.98 4 5 C2.35 5.33 0.7 5.66 -1 6 C-0.67 4.02 -0.34 2.04 0 0 Z " fill="#272628" transform="translate(250,611)"/>
<path d="M0 0 C0.99 0.33 1.98 0.66 3 1 C2.67 1.66 2.34 2.32 2 3 C-1.63 3 -5.26 3 -9 3 C-9 2.67 -9 2.34 -9 2 C-6.949 1.772 -4.898 1.544 -2.848 1.316 C-0.989 1.181 -0.989 1.181 0 0 Z " fill="#3E3E3F" transform="translate(645,460)"/>
<path d="M0 0 C1.65 0 3.3 0 5 0 C5 0.99 5 1.98 5 3 C3.35 3.33 1.7 3.66 0 4 C0 2.68 0 1.36 0 0 Z " fill="#E0E0E1" transform="translate(544,446)"/>
<path d="M0 0 C0 3 0 3 -2 5.188 C-2.66 5.786 -3.32 6.384 -4 7 C-4.66 6.67 -5.32 6.34 -6 6 C-2.25 1.125 -2.25 1.125 0 0 Z " fill="#B4B5B3" transform="translate(438,237)"/>
</svg>